<?xml version="1.0" encoding="UTF-8"?>
<svg width="340px" height="340px" viewBox="0 0 340 340" version="1.1" xmlns="http://www.w3.org/2000/svg" xmlns:xlink="http://www.w3.org/1999/xlink">
    <!-- Generator: Sketch 52.3 (67297) - http://www.bohemiancoding.com/sketch -->
    <title>Solshare</title>
    <desc>Created with Sketch.</desc>
    <defs>
        <polygon id="path-1" points="1.08252683 0.633209756 34.669722 0.633209756 34.669722 34.2195122 1.08252683 34.2195122"></polygon>
        <polygon id="path-3" points="0.849685366 0.758780488 22.2056366 0.758780488 22.2056366 14.7514366 0.849685366 14.7514366"></polygon>
    </defs>
    <g id="Solshare" stroke="none" stroke-width="1" fill="none" fill-rule="evenodd">
        <g id="Group-2" transform="translate(-4248.000000, 0.000000)">
            <rect id="Rectangle" x="4248" y="0" width="340" height="340"></rect>
            <g id="Group-27" transform="translate(4274.000000, 140.000000)">
                <path d="M15.9851244,46.9578 L7.18327073,44.7573366 C4.5513439,44.0684829 2.69605122,43.0418976 1.61888049,41.6820439 C0.538734146,40.323678 0.000148780488,38.349361 0.000148780488,35.7620683 C0.000148780488,32.2657268 0.938953659,29.9149951 2.81507561,28.7068976 C4.69119756,27.5002878 7.91675854,26.9170683 12.4902707,26.9602146 C17.5383927,27.0465073 22.0256122,27.4125073 25.9519293,28.0597024 L25.4341732,32.5900683 C18.8327829,32.3743366 14.8410024,32.2657268 13.4618073,32.2657268 C10.3969293,32.2657268 8.40178293,32.4502146 7.47488049,32.8162146 C6.54649024,33.1837024 6.08378293,34.1656537 6.08378293,35.7620683 C6.08378293,36.4955561 6.14924634,37.0877024 6.27868537,37.5414829 C6.40812439,37.9937756 6.73990488,38.371678 7.27997805,38.6737024 C7.82005122,38.9757268 8.2411,39.1810439 8.54312439,39.2881659 C8.84366098,39.3967756 9.51317317,39.6020927 10.5486854,39.9026293 L19.479978,42.1030927 C22.1535634,42.7934341 24.0534902,43.7753854 25.1752951,45.0489463 C26.2971,46.3210195 26.8580024,48.2938488 26.8580024,50.968922 C26.8580024,54.6795073 25.8314171,57.1284341 23.7827098,58.3157024 C21.7340024,59.5014829 18.1855878,60.0951171 13.1374659,60.0951171 C8.73653902,60.0951171 4.5513439,59.7930927 0.581880488,59.1890439 L1.03566098,54.529239 C3.45036829,54.7449707 7.05383171,54.8535805 11.8430756,54.8535805 C15.3810756,54.8535805 17.7526366,54.6051171 18.962222,54.109678 C20.1703195,53.614239 20.7743683,52.5668244 20.7743683,50.968922 C20.7743683,50.2800683 20.6865878,49.7087512 20.5154902,49.2549707 C20.3429049,48.8011902 19.9754171,48.4232878 19.4160024,48.1212634 C18.8551,47.8207268 18.4117341,47.6154098 18.0888805,47.5068 C17.764539,47.399678 17.0637829,47.216678 15.9851244,46.9578" id="Fill-1" fill="#F69020"></path>
                <path d="M77.917978,14.0807341 L77.917978,50.2567098 C77.8748317,51.5957341 78.1976854,52.5985146 78.8880268,53.266539 C79.5783683,53.9360512 80.6138805,54.2708073 81.9945634,54.2708073 L84.9061976,54.2708073 L85.6188561,59.1240268 C84.3676122,59.6834415 82.3605634,59.9661244 79.6006854,59.9661244 C77.1413439,59.9661244 75.1997585,59.2430512 73.7759293,57.7969049 C72.3521,56.3522463 71.6394415,54.3139537 71.6394415,51.680539 L71.6394415,14.0807341 L77.917978,14.0807341 Z" id="Fill-3" fill="#F69020"></path>
                <path d="M107.492415,46.1164463 L97.9154146,44.3028122 C95.4545854,43.8296902 93.6751707,42.9340317 92.5756829,41.6188122 C91.4747073,40.3021049 90.9242195,38.3486171 90.9242195,35.7613244 C90.9242195,32.2233244 91.819878,29.9053244 93.6111951,28.802861 C95.4010244,27.7033732 98.5179756,27.1766902 102.962049,27.2183488 C107.708146,27.3046415 111.979634,27.6289829 115.776512,28.1883976 L115.388195,31.1654951 C110.210634,30.9066171 106.241171,30.777178 103.481293,30.777178 C100.02661,30.7355195 97.7413415,30.9824951 96.6195366,31.5210805 C95.4962439,32.0626415 94.9383171,33.4745683 94.9383171,35.7613244 C94.9383171,37.5303244 95.3043171,38.760739 96.0378049,39.4510805 C96.7712927,40.1399341 98.0002195,40.6576902 99.7260732,41.002861 L109.370024,42.8150073 C111.871024,43.3327634 113.705488,44.228422 114.870439,45.5004951 C116.03539,46.7740561 116.61861,48.6843976 116.61861,51.2285439 C116.61861,54.8959829 115.636659,57.2913488 113.672756,58.4131537 C111.708854,59.5334707 108.355341,60.095861 103.610732,60.095861 C99.3392439,60.095861 95.3474634,59.813178 91.636878,59.2537634 L91.9612195,56.2112024 C95.3682927,56.5132268 99.0149024,56.6426659 102.898073,56.5995195 C106.73661,56.557861 109.314976,56.2007878 110.630195,55.5312756 C111.946902,54.8632512 112.606,53.4290073 112.606,51.2285439 C112.606,49.5458366 112.193878,48.3600561 111.375585,47.6697146 C110.555805,46.9793732 109.259927,46.4616171 107.492415,46.1164463" id="Fill-5" fill="#231F20"></path>
                <path d="M129.755778,14.0807341 L129.755778,27.0886122 C129.755778,29.5925878 129.602534,31.618978 129.301998,33.1722463 C134.652144,29.2027829 139.462217,27.2180512 143.735193,27.2180512 C146.495071,27.2180512 148.598827,27.951539 150.044973,29.4200024 C151.488144,30.8854902 152.212705,33.0204902 152.212705,35.8250024 L152.212705,59.3829049 L148.070656,59.3829049 L148.070656,36.925978 C148.070656,34.7255146 147.649607,33.1499293 146.808998,32.2021976 C145.9669,31.252978 144.575802,30.7783683 142.634217,30.7783683 C140.735778,30.7783683 138.81651,31.1994171 136.873437,32.0400268 C134.931851,32.8821244 132.515656,34.2717341 129.626339,36.2148073 L129.626339,59.3829049 L125.549754,59.3829049 L125.549754,14.0807341 L129.755778,14.0807341 Z" id="Fill-7" fill="#231F20"></path>
                <path d="M165.285898,48.3163146 L165.285898,51.0345341 C165.285898,54.5293878 167.117385,56.2775585 170.786312,56.2775585 C172.684751,56.3207049 174.807849,55.855022 177.160068,54.8849732 C179.512288,53.9149244 181.593727,52.6101195 183.407361,50.9690707 L183.407361,43.4616073 L170.009678,43.4616073 C166.859995,43.5910463 165.285898,45.209778 165.285898,48.3163146 M162.826556,31.6841439 L162.438239,28.6415829 C168.692971,27.6938512 173.720263,27.2177537 177.517141,27.2177537 C180.881068,27.2177537 183.395459,27.9616561 185.055849,29.4509488 C186.716239,30.9387537 187.547922,33.4099976 187.547922,36.8617049 L187.547922,59.3826073 L184.311946,59.3826073 L183.79419,53.8821927 C182.240922,55.435461 180.223459,56.8265585 177.743288,58.0569732 C175.261629,59.2859 172.70558,59.9003634 170.075141,59.9003634 C167.312288,59.9003634 165.132654,59.1683634 163.537727,57.7013878 C161.941312,56.2329244 161.143849,54.1410707 161.143849,51.4228512 L161.143849,47.7985585 C161.143849,45.3823634 161.85502,43.5062415 163.278849,42.1672171 C164.702678,40.8311683 166.730556,40.1631439 169.362483,40.1631439 L183.407361,40.1631439 L183.407361,36.8617049 C183.407361,34.7906805 182.920849,33.2597293 181.949312,32.2658756 C180.979263,31.2749976 179.241507,30.7780707 176.740507,30.7780707 C173.028434,30.7780707 168.392434,31.0800951 162.826556,31.6841439" id="Fill-9" fill="#231F20"></path>
                <path d="M216.99292,27.2182 L216.475163,31.1013707 L214.921895,31.1013707 C213.111237,31.1013707 211.275285,31.4792732 209.42148,32.2335902 C207.566188,32.9893951 205.191651,34.2302244 202.302334,35.9545902 L202.302334,59.3830537 L198.161773,59.3830537 L198.161773,28.0588098 L201.332285,28.0588098 L201.784578,33.2378585 C206.918993,29.2252488 211.535651,27.2182 215.634554,27.2182 L216.99292,27.2182 Z" id="Fill-11" fill="#231F20"></path>
                <path d="M225.277463,42.4914098 L239.968049,42.4914098 C242.729415,42.4914098 244.066951,40.6792634 243.980659,37.0564585 C243.937512,34.8545073 243.224854,33.2595805 241.845659,32.2657268 C240.464976,31.2748488 238.264512,30.777922 235.244268,30.777922 C231.576829,30.777922 229.008878,31.6304341 227.541902,33.3339707 C226.074927,35.0389951 225.32061,38.0904829 225.277463,42.4914098 M240.939585,45.7273854 L225.277463,45.7273854 C225.537829,49.8694341 226.485561,52.7170927 228.125122,54.270361 C229.764683,55.8236293 232.438268,56.5987756 236.150341,56.5987756 C239.386317,56.5987756 242.988293,56.3413854 246.957756,55.8236293 L247.411537,58.6058244 C244.734976,59.6413366 240.787829,60.1590927 235.56861,60.1590927 C230.303268,60.1590927 226.561439,58.8974341 224.338659,56.3741171 C222.117366,53.8493122 221.007463,49.5897268 221.007463,43.5908976 C221.007463,37.5518976 222.084634,33.3131415 224.243439,30.8746293 C226.399268,28.4376049 230.002732,27.2176049 235.049366,27.2176049 C239.493439,27.2176049 242.772561,28.0269707 244.88822,29.6442146 C247.000902,31.2629463 248.079561,33.713361 248.122707,36.9909951 C248.209,42.8157512 245.815122,45.7273854 240.939585,45.7273854" id="Fill-13" fill="#231F20"></path>
                <g id="Group-17" transform="translate(31.243902, 26.021112)">
                    <mask id="mask-2" fill="white">
                        <use xlink:href="#path-1"></use>
                    </mask>
                    <g id="Clip-16"></g>
                    <path d="M17.8753805,6.6543561 C11.9360634,6.6543561 7.10367317,11.4867463 7.10367317,17.4260634 C7.10367317,23.3653805 11.9360634,28.1977707 17.8753805,28.1977707 C23.8161854,28.1977707 28.6485756,23.3653805 28.6485756,17.4260634 C28.6485756,11.4867463 23.8161854,6.6543561 17.8753805,6.6543561 M17.8753805,34.2204049 C8.61528293,34.2204049 1.08252683,26.686161 1.08252683,17.4260634 C1.08252683,8.16745366 8.61528293,0.633209756 17.8753805,0.633209756 C27.1369659,0.633209756 34.669722,8.16745366 34.669722,17.4260634 C34.669722,26.686161 27.1369659,34.2204049 17.8753805,34.2204049" id="Fill-15" fill="#F69020" mask="url(#mask-2)"></path>
                </g>
                <g id="Group-20" transform="translate(260.365854, 0.728429)">
                    <mask id="mask-4" fill="white">
                        <use xlink:href="#path-3"></use>
                    </mask>
                    <g id="Clip-19"></g>
                    <path d="M10.0993683,14.7514366 C10.9295634,12.4542659 12.2492463,9.71075366 14.326222,7.81529024 C18.5010024,3.99311951 22.2011732,4.45880244 22.2056366,4.45880244 C19.9129293,2.17353415 16.7543195,0.758631707 13.2639293,0.758631707 C7.1118561,0.758631707 1.98636829,5.15509512 0.849685366,10.9783634 C3.83422195,13.4406805 7.79029512,14.443461 10.0993683,14.7514366" id="Fill-18" fill="#231F20" mask="url(#mask-4)"></path>
                </g>
                <path d="M273.789573,15.9883976 C287.383646,14.3265195 284.269671,8.58359268 283.856061,8.01227561 C282.027549,5.49490976 276.207256,7.51237317 273.789573,15.9883976" id="Fill-21" fill="#231F20"></path>
                <path d="M271.671088,26.6668195 C270.748649,26.4540634 268.796649,21.2006244 269.869356,16.9321122 C265.812112,16.2521854 263.619088,15.3386732 261.015429,13.4075024 C261.00799,13.4119659 261.009478,13.410478 261.000551,13.4149415 C260.604795,19.9211122 265.597868,25.5405512 271.70382,26.6727707 C271.694893,26.6712829 271.684478,26.6683073 271.671088,26.6668195" id="Fill-23" fill="#231F20"></path>
                <path d="M286.216463,12.8312756 C285.987341,13.3430805 284.143951,16.4704463 273.513585,17.0923488 C271.710366,26.3048366 277.869878,25.9641293 278.658415,25.7498854 C283.144146,23.8053244 286.283415,19.3419098 286.283415,14.1405439 C286.283415,13.6986659 286.25961,13.2642268 286.216463,12.8312756" id="Fill-25" fill="#231F20"></path>
            </g>
        </g>
    </g>
</svg>