<?xml version="1.0" encoding="UTF-8"?>
<svg width="340px" height="340px" viewBox="0 0 340 340" version="1.1" xmlns="http://www.w3.org/2000/svg" xmlns:xlink="http://www.w3.org/1999/xlink">
    <!-- Generator: Sketch 52.3 (67297) - http://www.bohemiancoding.com/sketch -->
    <title>Inficold</title>
    <desc>Created with Sketch.</desc>
    <g id="Inficold" stroke="none" stroke-width="1" fill="none" fill-rule="evenodd">
        <g id="Group-2">
            <rect id="Rectangle" x="0" y="0" width="340" height="340"></rect>
            <g id="Group-10" transform="translate(31.000000, 128.000000)">
                <path d="M59.7575758,82.9393939 L48.6928465,82.9393939 L48.6928465,61.9830354 C48.6928465,57.5480583 48.4516471,54.6856703 47.9809571,53.3797777 C47.510267,52.0853805 46.7328088,51.0691753 45.6696581,50.3426576 C44.6088491,49.6322336 43.3302582,49.2620774 41.8385687,49.2620774 C39.9159989,49.2620774 38.1948188,49.7747782 36.6773702,50.8024789 C35.1575799,51.8485725 34.1084796,53.2050456 33.5441199,54.9109828 C32.9797601,56.6123218 32.6964094,59.7529017 32.6964094,64.3442181 L32.6964094,82.9393939 L21.6363636,82.9393939 L21.6363636,36.0606061 L31.9049007,41.8842436 L31.9049007,47.9148008 C35.5603594,43.2683059 40.1571982,40.946208 45.697759,40.946208 C48.1308285,40.946208 50.374217,41.3830383 52.3904566,42.2406052 C54.4066961,43.1119667 55.9405369,44.2063415 56.9755867,45.551319 C58.0082948,46.8985956 58.7342347,48.4160061 59.139356,50.1196442 C59.5538442,51.8209833 59.7575758,54.24884 59.7575758,57.4147101" id="Fill-2" fill="#23211F"></path>
                <polyline id="Fill-3" fill="#23211F" points="0 82.9393939 0 25.2424242 5.66546737 25.2424242 11.3333333 28.3790296 11.3333333 82.9393939"></polyline>
                <path d="M278.181818,81.4997578 L267.81893,81.4997578 L267.81893,75.4597918 C266.094107,77.8109501 264.060117,79.5549161 261.712312,80.7053859 C259.366831,81.8558556 257.005078,82.4242424 254.617755,82.4242424 C249.759425,82.4242424 245.610086,80.520489 242.151141,76.712982 C238.706143,72.9054751 236.969697,67.5936833 236.969697,60.7867374 C236.969697,53.8063081 238.650354,48.5059297 242.013992,44.8856023 C245.37763,41.2629923 249.638548,39.4391326 254.780474,39.4391326 C259.487708,39.4391326 263.57196,41.3542994 267.016957,45.1755025 L267.016957,31.0594216 L278.181818,24.7272727 L278.181818,81.4997578 Z M248.378637,60.0471498 C248.378637,64.4321743 249.001619,67.6050967 250.249907,69.5750478 C252.037494,72.4055686 254.561966,73.8322423 257.793104,73.8322423 C260.368716,73.8322423 262.553802,72.7616664 264.357661,70.6319278 C266.149897,68.5067545 267.058799,65.320136 267.058799,61.0903336 C267.058799,56.3697555 266.175467,52.9594345 264.43902,50.8867629 C262.688627,48.8118085 260.4524,47.766342 257.70942,47.766342 C255.064071,47.766342 252.853414,48.7981125 251.063503,50.8456747 C249.271268,52.8955195 248.378637,55.9611561 248.378637,60.0471498 Z" id="Fill-4" fill="#23211F"></path>
                <polyline id="Fill-5" fill="#23211F" points="218.424242 82.9393939 218.424242 31.5202375 229.757576 25.2424242 229.757576 82.9393939"></polyline>
                <path d="M146.744534,54.6147536 C146.384879,52.4845482 145.558831,50.8811677 144.266391,49.8023217 C142.973951,48.7257663 141.310253,48.185198 139.259056,48.185198 C136.516391,48.185198 134.344535,49.1220303 132.720284,50.9727894 C131.093712,52.841873 130.281586,55.9570121 130.281586,60.3204975 C130.281586,65.1718687 131.107634,68.6053934 132.75973,70.6027474 C134.411825,72.6046824 136.623128,73.6010688 139.405238,73.6010688 C141.498202,73.6010688 143.187424,73.0238518 144.52163,71.8510936 C145.851196,70.6829164 146.19925,68.6718192 146.744534,65.8292547 L156.606061,71.6312014 C155.803216,74.7829893 153.687049,77.0941477 151.659055,78.6906565 C148.487124,81.1850584 144.238546,82.4242424 138.8994,82.4242424 C132.838622,82.4242424 128.002993,80.5437062 124.408757,76.771181 C120.798278,72.9963653 119,67.7624734 119,61.0855391 C119,54.3398884 120.8122,49.0808005 124.420359,45.3197281 C128.04476,41.5472029 132.931436,39.6666667 139.101271,39.6666667 C144.148052,39.6666667 148.157633,40.7409316 151.139294,42.8871708 C152.997902,44.2248483 155.638471,46.2244927 156.311375,49.1632601" id="Fill-6" fill="#23211F"></path>
                <polyline id="Fill-7" fill="#23211F" points="99.4242424 82.9393939 99.4242424 41.7272727 105.294832 41.7272727 110.757576 44.8752446 110.757576 82.9393939"></polyline>
                <path d="M65.4242424,41.8459515 L71.5640646,41.8459515 L71.5640646,38.7415637 C71.5640646,35.2942894 71.9409274,32.7053818 72.6923125,31.0001547 C73.4436975,29.2972288 74.8153848,27.9095744 76.8190782,26.8394926 C78.8344754,25.771712 81.3718628,25.2424242 84.4359219,25.2424242 L91.6969697,25.2424242 L91.6946289,33.6189786 C89.587942,33.6189786 88.4807609,33.6074723 87.1231182,33.6028698 C85.5126731,33.5982673 84.3680398,33.9595637 83.6704923,34.7005666 C82.9729449,35.4392682 82.635875,36.8522365 82.635875,38.9394713 L82.635875,41.8459515 L90.8987694,41.8459515 L90.8987694,50.3927984 L82.635875,50.3927984 L82.635875,82.9393939 L71.5640646,82.9393939 L71.5640646,50.3927984 L65.4242424,50.3927984" id="Fill-8" fill="#23211F"></path>
                <path d="M209.36478,52.7878392 C209.213359,52.4487162 209.059608,52.1003653 208.896539,51.7566284 L208.898868,51.9088877 L200.300463,51.9665617 L195.704241,59.3557518 L205.355608,59.2288691 L209.36478,52.7878392 Z M191.967627,16.9607636 C193.456216,21.3001538 195.459637,26.3916126 198.154938,32.2535958 C199.345343,34.8373901 201.122797,37.8595065 202.993434,41.0292684 L202.11519,40.5886392 L198.863124,45.8115947 L195.932538,41.4029958 L191.983934,43.5092495 L196.279642,49.9618142 L191.753308,57.2356564 L186.805322,49.804941 L190.711994,43.5253982 L186.700492,41.5275716 L184.089056,45.7216233 L180.855626,40.8631673 L176.907022,42.9832628 L180.233634,47.9824433 L174.693941,48.0193546 L174.742861,52.1395836 L182.963878,52.0819097 L187.872261,59.4572581 L178.220894,59.5818338 L173.974107,53.1961709 L170.023173,55.3001177 L172.918816,59.6510426 L166.514856,59.7340931 L166.582413,63.8704709 L172.984044,63.7874204 L170.232833,68.2052471 L174.246665,70.2030738 L178.283792,63.7159046 L187.795385,63.5936358 L183.16422,71.035886 L174.787123,71.1443131 L174.852351,75.2645421 L180.578409,75.1884125 L177.508049,80.1206911 L181.52421,82.1369734 L184.599229,77.1977739 L187.527486,81.6017589 L191.47609,79.4978121 L187.182711,73.0429405 L191.886092,65.4876493 L196.834078,72.9229786 L192.74803,79.4839704 L196.761861,81.484104 L199.550344,77.0039893 L201.821665,80.4159819 C187.518168,90.5435325 162.272727,83.8810345 162.272727,60.5161523 C162.272727,50.766943 173.74581,39.41209 177.098046,32.2535958 C180.41301,25.1781521 182.677342,19.2031279 184.233488,14.3262163 C184.335989,14.0078559 187.182711,0.885872312 187.182711,0 L191.967627,16.9607636 Z M186.49782,34.2052832 C186.882198,30.6548731 182.994162,25.8886955 181.463642,32.5488866 C180.310509,37.5688297 185.449519,37.0013177 186.49782,34.2052832 Z M187.914193,22.8965695 C188.172774,19.2077418 185.561337,14.2593145 184.531672,21.175578 C183.755928,26.3916126 187.210666,25.8010311 187.914193,22.8965695 Z M206.886129,47.8025004 C206.278113,46.6836253 205.637484,45.5555222 204.989867,44.4343401 L202.876956,47.830184 L206.886129,47.8025004 Z M205.211175,77.4584603 C205.968282,76.6533315 206.669479,75.778994 207.307779,74.8423686 L203.501278,74.8908147 L205.211175,77.4584603 Z M208.959437,71.9817393 C209.327507,71.2181358 209.658305,70.4222349 209.9495,69.5894226 L209.669953,69.739375 L205.427824,63.3629399 L195.913901,63.4875157 L200.782682,70.807497 L208.938471,70.7013769 L208.959437,71.9817393 Z M211.212121,64.0204232 L210.727573,63.2960381 L211.212121,64.0204232 Z" id="Fill-9" fill="#11ACE3"></path>
            </g>
        </g>
    </g>
</svg>