<?xml version="1.0" encoding="UTF-8"?>
<svg width="340px" height="340px" viewBox="0 0 340 340" version="1.1" xmlns="http://www.w3.org/2000/svg" xmlns:xlink="http://www.w3.org/1999/xlink">
    <!-- Generator: Sketch 52.3 (67297) - http://www.bohemiancoding.com/sketch -->
    <title>Carbon-masters</title>
    <desc>Created with Sketch.</desc>
    <g id="Carbon-masters" stroke="none" stroke-width="1" fill="none" fill-rule="evenodd">
        <g id="Group-2">
            <rect id="Rectangle" x="0" y="0" width="340" height="340"></rect>
            <g id="Group" transform="translate(82.000000, 82.000000)" fill="#0A0B09">
                <path d="M16.8438,124.6531 C20.4918,124.6531 23.2978,126.2901 25.6358,129.0491 L31.1088,129.0491 C28.0218,123.6241 23.0168,120.4911 16.75079,120.4911 C7.81779,120.4911 0.70879,127.6941 0.70879,136.6261 C0.70879,145.4191 7.81779,152.9011 16.7038,152.9011 C22.6898,152.9011 27.9278,149.8621 30.8748,144.6241 L25.3088,144.6241 C23.0638,147.1961 20.2118,148.7391 16.75079,148.7391 C10.2968,148.7391 5.29179,142.8931 5.29179,136.6261 C5.29179,130.1731 10.24979,124.6531 16.8438,124.6531" id="Fill-1"></path>
                <path d="M42.272,138.9168 L46.294,127.0378 L50.269,138.9168 L42.272,138.9168 Z M44.189,121.0988 L32.357,152.2938 L37.174,152.2938 L40.635,143.0808 L51.859,143.0808 L55.32,152.2938 L60.137,152.2938 L48.305,121.0988 L44.189,121.0988 Z" id="Fill-3"></path>
                <path d="M72.2363,137.1863 L69.1033,137.1863 L69.1033,125.3073 L73.9203,125.3073 C77.5213,125.3073 80.8413,127.1313 80.8413,131.1083 C80.8413,136.0183 76.3053,137.1863 72.2363,137.1863 M85.3783,131.1083 C85.3783,128.4423 84.4893,125.5883 82.5253,123.7173 C80.2803,121.5673 77.1943,121.0983 74.2003,121.0983 L64.5663,121.0983 L64.5663,152.2933 L69.1033,152.2933 L69.1033,137.7953 L79.4863,152.2933 L85.1913,152.2933 L76.4453,140.6943 C78.4563,140.4153 79.7193,140.1333 81.4493,139.0103 C84.1623,137.2803 85.3783,134.2413 85.3783,131.1083" id="Fill-4"></path>
                <path d="M99.8623,148.1316 L94.9053,148.1316 L94.9053,138.2626 L99.3013,138.2626 C102.5283,138.2626 105.4753,139.5726 105.4753,143.2196 C105.4753,146.4476 102.8563,148.1316 99.8623,148.1316 Z M94.9053,125.3076 L98.3663,125.3076 C101.3583,125.3076 103.6513,126.4306 103.6513,129.7506 C103.6513,132.7916 101.4053,134.1006 98.6003,134.1006 L94.9053,134.1006 L94.9053,125.3076 Z M105.3823,135.6436 C107.2533,134.0066 108.1883,132.2766 108.1883,129.7506 C108.1883,127.3656 107.3003,125.0746 105.5693,123.4366 C103.5103,121.5206 101.1733,121.0986 98.4603,121.0986 L90.3683,121.0986 L90.3683,152.2936 L99.6743,152.2936 C102.3413,152.2936 104.8193,151.8716 106.9253,150.0946 C108.9363,148.4106 110.0103,145.8856 110.0103,143.2666 C110.0103,139.7116 108.3743,137.4206 105.3823,135.6436 Z" id="Fill-5"></path>
                <path d="M129.501,148.7391 C122.767,148.7391 117.856,143.3131 117.856,136.6731 C117.856,130.1261 122.813,124.6531 129.501,124.6531 C136.189,124.6531 141.146,130.0791 141.146,136.6731 C141.146,143.3131 136.282,148.7391 129.501,148.7391 M145.73,136.7191 C145.73,127.6941 138.526,120.4911 129.501,120.4911 C120.476,120.4911 113.272,127.6941 113.272,136.7191 C113.272,145.6981 120.567,152.9011 129.501,152.9011 C138.435,152.9011 145.73,145.6981 145.73,136.7191" id="Fill-6"></path>
                <polygon id="Fill-7" points="174.8525 152.2937 174.8525 121.0987 170.2685 121.0987 170.2685 144.8557 155.0225 121.0987 150.0655 121.0987 150.0655 152.2937 154.6025 152.2937 154.6025 128.2077 170.1295 152.2937"></polygon>
                <polygon id="Fill-8" points="10.16209 173.22731 4.18109 159.24731 1.6461 159.24731 1.6461 175.6633 3.2951 175.6633 3.2951 161.0693 9.4481 175.6633 10.8271 175.6633 17.02909 161.0693 17.02909 175.6633 18.6531 175.6633 18.6531 159.24731 16.1181 159.24731"></polygon>
                <path d="M39.0483,168.6492 L42.2723,161.11821 L45.4233,168.6492 L39.0483,168.6492 Z M41.3373,159.2472 L34.3223,175.6632 L36.0213,175.6632 L38.4083,170.1262 L46.0633,170.1262 L48.4253,175.6632 L50.2223,175.6632 L43.1583,159.2472 L41.3373,159.2472 Z" id="Fill-9"></path>
                <path d="M69.8799,166.2605 C68.2309,165.7935 66.6559,165.3265 66.6559,163.3325 C66.6559,161.7565 67.8859,160.4285 69.4859,160.4285 C71.2339,160.4285 72.3409,161.7335 72.4889,163.4065 L74.1869,163.4065 C74.1869,160.8465 72.1689,158.9515 69.6339,158.9515 C67.0739,158.9515 65.0069,160.7725 65.0069,163.3815 C65.0069,164.4895 65.3759,165.5225 66.1639,166.3115 C67.6899,167.8855 70.1749,167.4675 71.8239,168.8465 C72.5139,169.4365 72.9319,170.2975 72.9319,171.2075 C72.9319,173.0045 71.4059,174.4815 69.6089,174.4815 C68.7969,174.4815 67.9599,174.1625 67.3699,173.6195 C66.6069,172.9305 66.3359,172.0695 66.2369,171.0615 L64.4899,171.0615 C64.6129,173.9655 66.6559,175.9575 69.5849,175.9575 C72.2669,175.9575 74.5809,173.8655 74.5809,171.1355 C74.5809,169.7565 73.9899,168.4775 72.9319,167.5655 C71.9969,166.7525 71.0369,166.5805 69.8799,166.2605" id="Fill-10"></path>
                <polygon id="Fill-11" points="89.3418 160.7234 93.1088 160.7234 93.1088 175.6624 94.7568 175.6624 94.7568 160.7234 98.5228 160.7234 98.5228 159.2464 89.3418 159.2464"></polygon>
                <polygon id="Fill-12" points="114.3672 175.66291 123.3502 175.66291 123.3502 174.18591 116.0152 174.18591 116.0152 168.10791 123.1042 168.10791 123.1042 166.62991 116.0152 166.62991 116.0152 160.7239 123.3502 160.7239 123.3502 159.24691 114.3672 159.24691"></polygon>
                <path d="M151.2051,164.5633 C151.2051,162.5203 150.1221,160.7493 148.2751,159.8623 C147.1191,159.29531 145.4701,159.2473 144.2151,159.2473 L140.0561,159.2473 L140.0561,175.6633 L141.7041,175.6633 L141.7041,160.72331 L144.5591,160.72331 C145.6671,160.72331 146.7741,160.79731 147.7591,161.36431 C148.8661,162.00231 149.5561,163.2093 149.5561,164.48931 C149.5561,165.8193 148.8421,166.97531 147.6851,167.63931 C146.4051,168.3543 144.7561,168.2313 143.3291,168.2313 L148.8921,175.6633 L150.9591,175.6633 L146.3311,169.5343 C149.0881,169.36231 151.2051,167.3703 151.2051,164.5633" id="Fill-13"></path>
                <path d="M174.7764,167.5652 C173.8404,166.7522 172.8804,166.5812 171.7244,166.2602 C170.0754,165.7942 168.5004,165.3272 168.5004,163.3332 C168.5004,161.75621 169.7304,160.4282 171.3304,160.4282 C173.0784,160.4282 174.1854,161.7332 174.3334,163.40721 L176.0314,163.40721 C176.0314,160.8462 174.0124,158.9522 171.4774,158.9522 C168.9184,158.9522 166.8504,160.7722 166.8504,163.38121 C166.8504,164.48921 167.2194,165.5222 168.0074,166.31121 C169.5334,167.8852 172.0194,167.4672 173.6694,168.8462 C174.3574,169.43621 174.7764,170.29721 174.7764,171.2082 C174.7764,173.00421 173.2504,174.4812 171.4534,174.4812 C170.6414,174.4812 169.8044,174.1632 169.2134,173.6202 C168.4514,172.9302 168.1794,172.0692 168.0814,171.06121 L166.3344,171.06121 C166.4574,173.96521 168.5004,175.9582 171.4284,175.9582 C174.1114,175.9582 176.4244,173.86621 176.4244,171.1352 C176.4244,169.75621 175.8344,168.47721 174.7764,167.5652" id="Fill-14"></path>
                <polygon id="Fill-15" points="151.0342 19.4143 145.0772 33.3933 139.0962 19.4143 136.5612 19.4143 136.5612 35.8303 138.2102 35.8303 138.2102 21.2353 144.3642 35.8303 145.7422 35.8303 151.9442 21.2353 151.9442 35.8303 153.5692 35.8303 153.5692 19.4143"></polygon>
                <path d="M140.5801,102.0711 C138.4051,104.5691 134.1111,104.9671 128.3611,103.5991 C128.3801,103.4231 128.4151,103.2501 128.4151,103.0671 C128.4151,100.1691 126.0651,97.8171 123.1651,97.8171 C121.3021,97.8171 119.6751,98.7961 118.7431,100.2591 C116.3481,99.2171 113.8191,97.9871 111.1861,96.5831 C120.0951,91.5261 127.2681,83.7771 131.6021,74.4351 C140.7291,87.1781 144.5051,97.5611 140.5801,102.0711 M93.3261,85.4571 C89.7721,82.9581 86.1461,80.2541 82.4841,77.3461 C83.8841,77.6411 85.3321,77.8041 86.8211,77.8041 C93.7191,77.8041 99.4051,74.7281 103.8791,69.6011 L114.9721,69.6011 C110.2121,78.0641 102.4501,83.6451 93.3261,85.4571 M86.7271,86.1001 C69.8881,86.1001 56.2601,72.6151 54.9591,56.2241 C59.8811,61.4771 65.3681,66.7771 71.3311,71.9661 C77.2981,77.1581 83.3061,81.8571 89.1891,86.0061 C88.3761,86.0641 87.5561,86.1001 86.7271,86.1001 M86.8211,21.5021 C99.3111,21.5021 109.2861,27.7471 115.4371,38.5601 L104.5311,38.5601 C99.8711,33.0601 94.2781,29.7981 87.0071,29.7981 C73.8641,29.7981 63.9831,40.7971 63.9831,53.6601 C63.9831,56.8711 64.6461,60.0241 65.8431,62.9401 C61.9251,59.2471 58.2661,55.5601 54.8941,51.9331 C55.7761,34.9381 69.5961,21.5021 86.8211,21.5021 M41.2151,35.3761 C32.1561,22.6931 28.4181,12.3631 32.3301,7.8671 C36.1681,3.4561 46.5921,5.5711 60.0341,12.4761 C51.6281,17.9631 45.0071,25.9461 41.2151,35.3761 M136.1651,53.7351 C136.1651,26.5341 114.1151,4.4851 86.9151,4.4851 C79.5231,4.4851 72.5181,6.1241 66.2261,9.0411 C49.4121,0.3311 35.7341,-2.1369 30.4611,3.9211 C25.2341,9.9281 29.4281,22.9531 40.1691,38.2331 C38.5531,43.1091 37.6651,48.3171 37.6651,53.7351 C37.6651,80.9351 59.7151,102.9851 86.9151,102.9851 C94.7091,102.9851 102.0761,101.1671 108.6271,97.9441 C111.8771,99.6261 115.0171,101.0891 117.9941,102.2861 C117.9551,102.5441 117.9151,102.8001 117.9151,103.0671 C117.9151,105.9671 120.2661,108.3191 123.1651,108.3191 C125.1981,108.3191 126.9401,107.1511 127.8121,105.4621 C135.4621,107.2121 141.3181,106.5511 144.3681,103.0481 C149.6871,96.9361 145.2441,83.5541 134.0791,67.9271 C135.4311,63.4321 136.1651,58.6701 136.1651,53.7351" id="Fill-16"></path>
            </g>
        </g>
    </g>
</svg>