<?xml version="1.0" encoding="UTF-8"?>
<svg width="340px" height="340px" viewBox="0 0 340 340" version="1.1" xmlns="http://www.w3.org/2000/svg" xmlns:xlink="http://www.w3.org/1999/xlink">
    <!-- Generator: Sketch 52.3 (67297) - http://www.bohemiancoding.com/sketch -->
    <title>Delectric-Systems</title>
    <desc>Created with Sketch.</desc>
    <g id="Delectric-Systems" stroke="none" stroke-width="1" fill="none" fill-rule="evenodd">
        <path d="M16.6238286,180.641232 L20.746988,180.641232 C21.4145504,180.641232 22.062469,180.533245 22.6907631,180.317269 C23.3190571,180.101293 23.8786232,179.742974 24.3694779,179.242303 C24.8603327,178.741631 25.2530106,178.088804 25.5475234,177.283802 C25.8420363,176.4788 25.9892905,175.497105 25.9892905,174.338688 C25.9892905,173.278442 25.8862125,172.321289 25.6800535,171.467202 C25.4738946,170.613115 25.1352099,169.881752 24.6639893,169.273092 C24.1927687,168.664432 23.5693925,168.198127 22.793842,167.874163 C22.0182915,167.550199 21.0611391,167.38822 19.9223561,167.38822 L16.6238286,167.38822 L16.6238286,180.641232 Z M12,163.500669 L21.0709505,163.500669 C22.4257096,163.500669 23.6871874,163.716642 24.8554217,164.148594 C26.023656,164.580547 27.0348016,165.228465 27.8888889,166.092369 C28.7429762,166.956274 29.4105286,168.036138 29.8915663,169.331995 C30.3726039,170.627851 30.6131191,172.149478 30.6131191,173.896921 C30.6131191,175.428388 30.4167802,176.842028 30.0240964,178.137885 C29.6314126,179.433741 29.0374872,180.552873 28.2423025,181.495315 C27.4471178,182.437756 26.4556061,183.178935 25.2677376,183.718876 C24.0798691,184.258816 22.6809541,184.528782 21.0709505,184.528782 L12,184.528782 L12,163.500669 Z M33.8232932,163.500669 L49.5502008,163.500669 L49.5502008,167.38822 L38.4471218,167.38822 L38.4471218,171.894244 L48.6372155,171.894244 L48.6372155,175.487282 L38.4471218,175.487282 L38.4471218,180.641232 L49.7858099,180.641232 L49.7858099,184.528782 L33.8232932,184.528782 L33.8232932,163.500669 Z M52.9076305,163.500669 L57.5314592,163.500669 L57.5314592,180.641232 L67.7804552,180.641232 L67.7804552,184.528782 L52.9076305,184.528782 L52.9076305,163.500669 Z M70.3721553,163.500669 L86.0990629,163.500669 L86.0990629,167.38822 L74.9959839,167.38822 L74.9959839,171.894244 L85.1860776,171.894244 L85.1860776,175.487282 L74.9959839,175.487282 L74.9959839,180.641232 L86.334672,180.641232 L86.334672,184.528782 L70.3721553,184.528782 L70.3721553,163.500669 Z M103.475234,170.568942 C103.396698,170.038819 103.219992,169.55288 102.945114,169.111111 C102.670235,168.669342 102.326642,168.281572 101.914324,167.947791 C101.502006,167.61401 101.035701,167.353861 100.515395,167.167336 C99.9950889,166.980811 99.4502483,166.88755 98.8808568,166.88755 C97.8402447,166.88755 96.9567194,167.088798 96.2302544,167.491299 C95.5037893,167.893799 94.9147724,168.433732 94.4631861,169.111111 C94.0115997,169.788491 93.682732,170.559121 93.476573,171.423025 C93.270414,172.28693 93.167336,173.180272 93.167336,174.103079 C93.167336,174.986618 93.270414,175.8456 93.476573,176.680054 C93.682732,177.514507 94.0115997,178.265503 94.4631861,178.933066 C94.9147724,179.600628 95.5037893,180.135652 96.2302544,180.538153 C96.9567194,180.940654 97.8402447,181.141901 98.8808568,181.141901 C100.294518,181.141901 101.398925,180.709955 102.19411,179.846051 C102.989294,178.982147 103.475233,177.843381 103.651941,176.429719 L108.128514,176.429719 C108.010709,177.74521 107.706384,178.93306 107.215529,179.993307 C106.724674,181.053553 106.076755,181.956712 105.271754,182.702811 C104.466752,183.44891 103.524325,184.018293 102.444444,184.410977 C101.364564,184.803661 100.176713,185 98.8808568,185 C97.2708532,185 95.8228534,184.720217 94.5368139,184.160643 C93.2507745,183.601068 92.1660017,182.830438 91.2824632,181.848728 C90.3989246,180.867019 89.7215552,179.713527 89.2503347,178.38822 C88.7791141,177.062912 88.5435074,175.634546 88.5435074,174.103079 C88.5435074,172.532344 88.7791141,171.074527 89.2503347,169.729585 C89.7215552,168.384643 90.3989246,167.211518 91.2824632,166.210174 C92.1660017,165.20883 93.2507745,164.423475 94.5368139,163.854083 C95.8228534,163.284691 97.2708532,163 98.8808568,163 C100.039274,163 101.133864,163.166888 102.164659,163.500669 C103.195454,163.834451 104.118247,164.320389 104.933066,164.958501 C105.747884,165.596612 106.420345,166.386876 106.950469,167.329317 C107.480592,168.271758 107.814368,169.351623 107.951807,170.568942 L103.475234,170.568942 Z M115.933066,167.38822 L109.630522,167.38822 L109.630522,163.500669 L126.859438,163.500669 L126.859438,167.38822 L120.556894,167.38822 L120.556894,184.528782 L115.933066,184.528782 L115.933066,167.38822 Z M133.89826,173.013387 L138.963855,173.013387 C140.024102,173.013387 140.819274,172.77778 141.349398,172.30656 C141.879521,171.835339 142.144578,171.069617 142.144578,170.009371 C142.144578,168.988393 141.879521,168.247213 141.349398,167.78581 C140.819274,167.324406 140.024102,167.093708 138.963855,167.093708 L133.89826,167.093708 L133.89826,173.013387 Z M129.274431,163.500669 L140.613119,163.500669 C141.55556,163.500669 142.404726,163.652832 143.160643,163.957162 C143.916559,164.261492 144.564477,164.678712 145.104418,165.208835 C145.644358,165.738958 146.05667,166.352518 146.341365,167.049531 C146.626061,167.746545 146.768407,168.497542 146.768407,169.302544 C146.768407,170.539497 146.508258,171.609545 145.987952,172.512718 C145.467646,173.41589 144.61848,174.103077 143.440428,174.574297 L143.440428,174.633199 C144.00982,174.790273 144.481033,175.030788 144.854083,175.354752 C145.227133,175.678716 145.531458,176.061577 145.767068,176.503347 C146.002679,176.945116 146.174475,177.431055 146.282463,177.961178 C146.390451,178.491301 146.464078,179.021416 146.503347,179.551539 C146.522981,179.885321 146.542615,180.277999 146.562249,180.729585 C146.581883,181.181171 146.616243,181.642568 146.665328,182.113788 C146.714413,182.585009 146.792949,183.03168 146.900937,183.453815 C147.008925,183.87595 147.170905,184.234269 147.386881,184.528782 L142.763052,184.528782 C142.507808,183.861219 142.350737,183.066047 142.291834,182.14324 C142.232931,181.220433 142.144579,180.336907 142.026774,179.492637 C141.8697,178.393123 141.535924,177.588133 141.025435,177.077644 C140.514946,176.567155 139.680506,176.311914 138.522088,176.311914 L133.89826,176.311914 L133.89826,184.528782 L129.274431,184.528782 L129.274431,163.500669 Z M150.538153,163.500669 L155.161981,163.500669 L155.161981,184.528782 L150.538153,184.528782 L150.538153,163.500669 Z M173.24498,170.568942 C173.166443,170.038819 172.989738,169.55288 172.714859,169.111111 C172.439981,168.669342 172.096388,168.281572 171.68407,167.947791 C171.271752,167.61401 170.805447,167.353861 170.285141,167.167336 C169.764835,166.980811 169.219994,166.88755 168.650602,166.88755 C167.60999,166.88755 166.726465,167.088798 166,167.491299 C165.273535,167.893799 164.684518,168.433732 164.232932,169.111111 C163.781345,169.788491 163.452478,170.559121 163.246319,171.423025 C163.04016,172.28693 162.937082,173.180272 162.937082,174.103079 C162.937082,174.986618 163.04016,175.8456 163.246319,176.680054 C163.452478,177.514507 163.781345,178.265503 164.232932,178.933066 C164.684518,179.600628 165.273535,180.135652 166,180.538153 C166.726465,180.940654 167.60999,181.141901 168.650602,181.141901 C170.064264,181.141901 171.168671,180.709955 171.963855,179.846051 C172.75904,178.982147 173.244979,177.843381 173.421687,176.429719 L177.89826,176.429719 C177.780455,177.74521 177.476129,178.93306 176.985274,179.993307 C176.49442,181.053553 175.846501,181.956712 175.041499,182.702811 C174.236498,183.44891 173.294071,184.018293 172.21419,184.410977 C171.13431,184.803661 169.946459,185 168.650602,185 C167.040599,185 165.592599,184.720217 164.30656,184.160643 C163.02052,183.601068 161.935747,182.830438 161.052209,181.848728 C160.16867,180.867019 159.491301,179.713527 159.02008,178.38822 C158.54886,177.062912 158.313253,175.634546 158.313253,174.103079 C158.313253,172.532344 158.54886,171.074527 159.02008,169.729585 C159.491301,168.384643 160.16867,167.211518 161.052209,166.210174 C161.935747,165.20883 163.02052,164.423475 164.30656,163.854083 C165.592599,163.284691 167.040599,163 168.650602,163 C169.80902,163 170.903609,163.166888 171.934404,163.500669 C172.965199,163.834451 173.887992,164.320389 174.702811,164.958501 C175.51763,165.596612 176.190091,166.386876 176.720214,167.329317 C177.250337,168.271758 177.584114,169.351623 177.721553,170.568942 L173.24498,170.568942 Z M192.38822,177.548862 C192.38822,178.255693 192.51584,178.854527 192.771084,179.345382 C193.026329,179.836236 193.365014,180.233823 193.787149,180.538153 C194.209284,180.842483 194.70504,181.068272 195.274431,181.215529 C195.843823,181.362785 196.432839,181.436412 197.041499,181.436412 C197.453817,181.436412 197.89558,181.402053 198.366801,181.333333 C198.838021,181.264614 199.279784,181.132085 199.692102,180.935743 C200.10442,180.739401 200.448013,180.469435 200.722892,180.125837 C200.99777,179.782238 201.135207,179.345384 201.135207,178.815261 C201.135207,178.24587 200.953594,177.784473 200.590361,177.431058 C200.227129,177.077642 199.751007,176.783134 199.161981,176.547523 C198.572956,176.311913 197.905403,176.105757 197.159304,175.92905 C196.413205,175.752342 195.6573,175.556003 194.891566,175.340027 C194.106199,175.143685 193.340477,174.90317 192.594378,174.618474 C191.848278,174.333778 191.180726,173.965643 190.5917,173.514056 C190.002674,173.06247 189.526552,172.497995 189.16332,171.820616 C188.800087,171.143236 188.618474,170.323521 188.618474,169.361446 C188.618474,168.281565 188.849172,167.344047 189.310576,166.548862 C189.771979,165.753677 190.375721,165.091033 191.121821,164.56091 C191.86792,164.030787 192.712177,163.638109 193.654618,163.382865 C194.59706,163.12762 195.539487,163 196.481928,163 C197.581442,163 198.636764,163.122712 199.647925,163.368139 C200.659086,163.613567 201.557337,164.011153 202.342704,164.56091 C203.128072,165.110668 203.751448,165.812579 204.212851,166.666667 C204.674255,167.520754 204.904953,168.556442 204.904953,169.773762 L200.42838,169.773762 C200.389112,169.145468 200.256583,168.625169 200.03079,168.212851 C199.804997,167.800533 199.50558,167.476574 199.13253,167.240964 C198.759481,167.005354 198.332443,166.838465 197.851406,166.740295 C197.370368,166.642124 196.845161,166.593039 196.27577,166.593039 C195.90272,166.593039 195.529676,166.632307 195.156627,166.710843 C194.783577,166.78938 194.444892,166.926817 194.140562,167.123159 C193.836232,167.319501 193.5859,167.564925 193.389558,167.859438 C193.193216,168.153951 193.095047,168.526995 193.095047,168.978581 C193.095047,169.390899 193.173582,169.724675 193.330656,169.97992 C193.487729,170.235164 193.796963,170.470771 194.258367,170.686747 C194.71977,170.902723 195.357872,171.118696 196.172691,171.334672 C196.98751,171.550648 198.052648,171.825523 199.368139,172.159304 C199.760823,172.237841 200.305664,172.380186 201.002677,172.586345 C201.699691,172.792504 202.391786,173.121372 203.078983,173.572959 C203.766179,174.024545 204.360105,174.628287 204.860776,175.384203 C205.361448,176.14012 205.61178,177.107089 205.61178,178.285141 C205.61178,179.247216 205.425258,180.140558 205.052209,180.965194 C204.679159,181.78983 204.124502,182.501559 203.38822,183.100402 C202.651937,183.699244 201.738961,184.165549 200.649264,184.499331 C199.559566,184.833112 198.298088,185 196.864793,185 C195.706375,185 194.582335,184.857654 193.492637,184.572959 C192.40294,184.288263 191.440879,183.841592 190.606426,183.232932 C189.771973,182.624272 189.109329,181.848733 188.618474,180.906292 C188.127619,179.963851 187.892012,178.844719 187.911647,177.548862 L192.38822,177.548862 Z M213.799197,176.341365 L206.082999,163.500669 L211.266399,163.500669 L216.184739,171.80589 L221.073628,163.500669 L226.227577,163.500669 L218.423025,176.45917 L218.423025,184.528782 L213.799197,184.528782 L213.799197,176.341365 Z M231.145917,177.548862 C231.145917,178.255693 231.273537,178.854527 231.528782,179.345382 C231.784026,179.836236 232.122711,180.233823 232.544846,180.538153 C232.966981,180.842483 233.462737,181.068272 234.032129,181.215529 C234.60152,181.362785 235.190537,181.436412 235.799197,181.436412 C236.211515,181.436412 236.653277,181.402053 237.124498,181.333333 C237.595719,181.264614 238.037481,181.132085 238.449799,180.935743 C238.862117,180.739401 239.20571,180.469435 239.480589,180.125837 C239.755468,179.782238 239.892905,179.345384 239.892905,178.815261 C239.892905,178.24587 239.711291,177.784473 239.348059,177.431058 C238.984826,177.077642 238.508704,176.783134 237.919679,176.547523 C237.330653,176.311913 236.663101,176.105757 235.917001,175.92905 C235.170902,175.752342 234.414997,175.556003 233.649264,175.340027 C232.863896,175.143685 232.098174,174.90317 231.352075,174.618474 C230.605976,174.333778 229.938423,173.965643 229.349398,173.514056 C228.760372,173.06247 228.28425,172.497995 227.921017,171.820616 C227.557785,171.143236 227.376171,170.323521 227.376171,169.361446 C227.376171,168.281565 227.60687,167.344047 228.068273,166.548862 C228.529677,165.753677 229.133419,165.091033 229.879518,164.56091 C230.625617,164.030787 231.469875,163.638109 232.412316,163.382865 C233.354757,163.12762 234.297184,163 235.239625,163 C236.33914,163 237.394462,163.122712 238.405622,163.368139 C239.416783,163.613567 240.315034,164.011153 241.100402,164.56091 C241.885769,165.110668 242.509145,165.812579 242.970549,166.666667 C243.431952,167.520754 243.662651,168.556442 243.662651,169.773762 L239.186078,169.773762 C239.146809,169.145468 239.01428,168.625169 238.788487,168.212851 C238.562694,167.800533 238.263277,167.476574 237.890228,167.240964 C237.517178,167.005354 237.090141,166.838465 236.609103,166.740295 C236.128065,166.642124 235.602859,166.593039 235.033467,166.593039 C234.660418,166.593039 234.287374,166.632307 233.914324,166.710843 C233.541274,166.78938 233.20259,166.926817 232.89826,167.123159 C232.59393,167.319501 232.343598,167.564925 232.147256,167.859438 C231.950914,168.153951 231.852744,168.526995 231.852744,168.978581 C231.852744,169.390899 231.93128,169.724675 232.088353,169.97992 C232.245427,170.235164 232.554661,170.470771 233.016064,170.686747 C233.477468,170.902723 234.115569,171.118696 234.930388,171.334672 C235.745207,171.550648 236.810346,171.825523 238.125837,172.159304 C238.51852,172.237841 239.063361,172.380186 239.760375,172.586345 C240.457389,172.792504 241.149483,173.121372 241.83668,173.572959 C242.523877,174.024545 243.117802,174.628287 243.618474,175.384203 C244.119146,176.14012 244.369478,177.107089 244.369478,178.285141 C244.369478,179.247216 244.182956,180.140558 243.809906,180.965194 C243.436857,181.78983 242.882199,182.501559 242.145917,183.100402 C241.409635,183.699244 240.496659,184.165549 239.406961,184.499331 C238.317264,184.833112 237.055786,185 235.62249,185 C234.464073,185 233.340032,184.857654 232.250335,184.572959 C231.160637,184.288263 230.198576,183.841592 229.364123,183.232932 C228.52967,182.624272 227.867026,181.848733 227.376171,180.906292 C226.885317,179.963851 226.64971,178.844719 226.669344,177.548862 L231.145917,177.548862 Z M251.761714,167.38822 L245.45917,167.38822 L245.45917,163.500669 L262.688086,163.500669 L262.688086,167.38822 L256.385542,167.38822 L256.385542,184.528782 L251.761714,184.528782 L251.761714,167.38822 Z M265.103079,163.500669 L280.829987,163.500669 L280.829987,167.38822 L269.726908,167.38822 L269.726908,171.894244 L279.917001,171.894244 L279.917001,175.487282 L269.726908,175.487282 L269.726908,180.641232 L281.065596,180.641232 L281.065596,184.528782 L265.103079,184.528782 L265.103079,163.500669 Z M284.187416,163.500669 L290.696118,163.500669 L295.614458,177.961178 L295.67336,177.961178 L300.32664,163.500669 L306.835341,163.500669 L306.835341,184.528782 L302.506024,184.528782 L302.506024,169.626506 L302.447122,169.626506 L297.293173,184.528782 L293.729585,184.528782 L288.575636,169.773762 L288.516734,169.773762 L288.516734,184.528782 L284.187416,184.528782 L284.187416,163.500669 Z M314.05087,177.548862 C314.05087,178.255693 314.17849,178.854527 314.433735,179.345382 C314.688979,179.836236 315.027664,180.233823 315.449799,180.538153 C315.871934,180.842483 316.36769,181.068272 316.937082,181.215529 C317.506473,181.362785 318.09549,181.436412 318.70415,181.436412 C319.116468,181.436412 319.558231,181.402053 320.029451,181.333333 C320.500672,181.264614 320.942434,181.132085 321.354752,180.935743 C321.76707,180.739401 322.110664,180.469435 322.385542,180.125837 C322.660421,179.782238 322.797858,179.345384 322.797858,178.815261 C322.797858,178.24587 322.616245,177.784473 322.253012,177.431058 C321.88978,177.077642 321.413658,176.783134 320.824632,176.547523 C320.235606,176.311913 319.568054,176.105757 318.821954,175.92905 C318.075855,175.752342 317.31995,175.556003 316.554217,175.340027 C315.768849,175.143685 315.003127,174.90317 314.257028,174.618474 C313.510929,174.333778 312.843376,173.965643 312.254351,173.514056 C311.665325,173.06247 311.189203,172.497995 310.825971,171.820616 C310.462738,171.143236 310.281124,170.323521 310.281124,169.361446 C310.281124,168.281565 310.511823,167.344047 310.973226,166.548862 C311.43463,165.753677 312.038372,165.091033 312.784471,164.56091 C313.53057,164.030787 314.374828,163.638109 315.317269,163.382865 C316.25971,163.12762 317.202137,163 318.144578,163 C319.244093,163 320.299415,163.122712 321.310576,163.368139 C322.321736,163.613567 323.219987,164.011153 324.005355,164.56091 C324.790722,165.110668 325.414099,165.812579 325.875502,166.666667 C326.336905,167.520754 326.567604,168.556442 326.567604,169.773762 L322.091031,169.773762 C322.051762,169.145468 321.919234,168.625169 321.69344,168.212851 C321.467647,167.800533 321.16823,167.476574 320.795181,167.240964 C320.422131,167.005354 319.995094,166.838465 319.514056,166.740295 C319.033019,166.642124 318.507812,166.593039 317.93842,166.593039 C317.565371,166.593039 317.192327,166.632307 316.819277,166.710843 C316.446227,166.78938 316.107543,166.926817 315.803213,167.123159 C315.498883,167.319501 315.248551,167.564925 315.052209,167.859438 C314.855867,168.153951 314.757697,168.526995 314.757697,168.978581 C314.757697,169.390899 314.836233,169.724675 314.993307,169.97992 C315.15038,170.235164 315.459614,170.470771 315.921017,170.686747 C316.382421,170.902723 317.020522,171.118696 317.835341,171.334672 C318.65016,171.550648 319.715299,171.825523 321.03079,172.159304 C321.423474,172.237841 321.968314,172.380186 322.665328,172.586345 C323.362342,172.792504 324.054437,173.121372 324.741633,173.572959 C325.42883,174.024545 326.022755,174.628287 326.523427,175.384203 C327.024099,176.14012 327.274431,177.107089 327.274431,178.285141 C327.274431,179.247216 327.087909,180.140558 326.714859,180.965194 C326.34181,181.78983 325.787152,182.501559 325.05087,183.100402 C324.314588,183.699244 323.401612,184.165549 322.311914,184.499331 C321.222217,184.833112 319.960739,185 318.527443,185 C317.369026,185 316.244985,184.857654 315.155288,184.572959 C314.06559,184.288263 313.103529,183.841592 312.269076,183.232932 C311.434623,182.624272 310.771979,181.848733 310.281124,180.906292 C309.79027,179.963851 309.554663,178.844719 309.574297,177.548862 L314.05087,177.548862 Z" id="DELECTRIC-SYSTEMS" fill="#153A51"></path>
    </g>
</svg>