<?xml version="1.0" encoding="UTF-8"?>
<svg width="400px" height="400px" viewBox="0 0 400 400" version="1.1" xmlns="http://www.w3.org/2000/svg" xmlns:xlink="http://www.w3.org/1999/xlink">
    <!-- Generator: Sketch 52.3 (67297) - http://www.bohemiancoding.com/sketch -->
    <title>Group 16 Copy</title>
    <desc>Created with Sketch.</desc>
    <defs>
        <path d="M151.540217,269.181818 L117.985783,269.181818 C55.2771456,261.399648 5.92258166,210.562784 0.424242424,147.173377 L0.424242424,123.560246 C6.40453205,54.6145073 64.2663327,0.518237374 134.763,0.518237374 C209.237773,0.518237374 269.611485,60.8920391 269.611485,135.366812 C269.611485,204.160272 218.097659,260.92201 151.540217,269.181818 Z" id="path-1"></path>
        <path d="M66.1178788,156.348918 C67.6500466,155.975844 68.7574592,155.789307 69.4401865,155.789307 C70.2340559,155.789307 71.3414918,155.975844 72.7625175,156.348918 C78.9475991,157.747165 83.5599767,162.938052 83.5599767,169.126883 C83.5599767,176.383961 77.226014,182.287771 69.4401865,182.287771 C61.6543823,182.287771 55.3204196,176.383961 55.3204196,169.126883 C55.3204196,162.938052 59.9327972,157.747165 66.1178788,156.348918 Z" id="path-3"></path>
        <path d="M108.841865,156.348918 C110.374033,155.975844 111.481422,155.789307 112.164172,155.789307 C112.958042,155.789307 114.065478,155.975844 115.48648,156.348918 C121.671585,157.747165 126.283963,162.938052 126.283963,169.126883 C126.283963,176.383961 119.95,182.287771 112.164172,182.287771 C104.378345,182.287771 98.0444056,176.383961 98.0444056,169.126883 C98.0444056,162.938052 102.656783,157.747165 108.841865,156.348918 Z" id="path-5"></path>
        <path d="M154.596154,156.348918 C156.128298,155.975844 157.235711,155.789307 157.918462,155.789307 C158.712308,155.789307 159.819744,155.975844 161.240769,156.348918 C167.425851,157.747165 172.038228,162.938052 172.038228,169.126883 C172.038228,176.383961 165.704289,182.287771 157.918462,182.287771 C150.132634,182.287771 143.798671,176.383961 143.798671,169.126883 C143.798671,162.938052 148.411049,157.747165 154.596154,156.348918 Z" id="path-7"></path>
        <path d="M197.320117,156.348918 C198.852284,155.975844 199.959697,155.789307 200.642424,155.789307 C201.436294,155.789307 202.54373,155.975844 203.964755,156.348918 C210.149837,157.747165 214.762214,162.938052 214.762214,169.126883 C214.762214,176.383961 208.428252,182.287771 200.642424,182.287771 C192.85662,182.287771 186.522657,176.383961 186.522657,169.126883 C186.522657,162.938052 191.135035,157.747165 197.320117,156.348918 Z" id="path-9"></path>
        <polygon id="path-11" points="66.0352424 164.328121 72.1216288 164.328121 72.1216288 170.414485 66.0352424 170.414485"></polygon>
        <polygon id="path-13" points="111.49222 164.328121 117.578583 164.328121 117.578583 170.414485 111.49222 170.414485"></polygon>
        <polygon id="path-15" points="153.918871 164.328121 160.005235 164.328121 160.005235 170.414485 153.918871 170.414485"></polygon>
        <polygon id="path-17" points="196.055705 164.328121 202.142068 164.328121 202.142068 170.414485 196.055705 170.414485"></polygon>
        <path d="M226.320976,153.235218 L220.207428,153.235218 L220.207428,102.216985 C220.218879,97.0044211 216.233298,92.6521904 211.037207,92.2027467 L211.037207,101.300477 C211.037207,102.987592 209.668562,104.355482 207.980467,104.355482 L189.640025,104.355482 C187.951953,104.355482 186.583308,102.987592 186.583308,101.300477 L186.583308,92.1935983 C181.38379,92.6430645 177.397059,97.0009736 177.41311,102.216985 L177.41311,104.355482 C177.41311,106.042597 176.044442,107.410464 174.35637,107.410464 L159.072669,107.410464 C157.384574,107.410464 156.015928,108.778331 156.015928,110.465446 C156.015928,112.152538 157.384574,113.520406 159.072669,113.520406 L183.526568,113.520406 C185.214663,113.520406 186.583308,114.888295 186.583308,116.57541 L186.583308,150.180236 L207.980467,150.180236 C216.849227,150.231409 224.410431,156.617853 225.940007,165.348588 C227.686826,175.320442 221.014381,184.819148 211.037207,186.565074 L211.037207,205.169915 L214.093925,205.169915 C215.115663,205.169915 216.070135,205.679702 216.637169,206.529399 L222.750627,215.694346 C223.085744,216.196517 223.264551,216.786499 223.264551,217.390226 C223.264551,219.077341 221.895523,220.445208 220.207428,220.444848 L195.753528,220.444848 C195.149435,220.444848 194.559092,220.266138 194.056642,219.93123 C192.652064,218.99487 192.27344,217.097725 193.210306,215.694346 L199.323809,206.529399 C199.890821,205.679702 200.84527,205.169915 201.867009,205.169915 L204.923727,205.169915 L204.923727,186.840022 L186.583308,186.840022 L186.583308,214.334861 L189.640025,214.334861 L189.640025,220.444848 L183.526568,220.444848 C181.838473,220.444848 180.469827,219.076958 180.469827,217.389843 L180.469827,186.840022 L94.8811918,186.840022 L94.8811918,217.389843 C94.8811918,219.076958 93.512524,220.444848 91.824429,220.444848 L82.654231,220.444848 L82.654231,214.334861 L88.7676888,214.334861 L88.7676888,186.840022 L64.3137897,186.840022 L64.3137897,205.169915 L67.3705299,205.169915 C68.3922687,205.169915 69.346718,205.679702 69.913752,206.529399 L76.0272324,215.694346 C76.3623267,216.196517 76.5411338,216.786499 76.5411338,217.390226 C76.5411338,219.077341 75.1721053,220.445208 73.4840329,220.444848 L49.0301338,220.444848 C48.4260399,220.444848 47.835697,220.266138 47.3332472,219.93123 C45.9286693,218.99487 45.5500455,217.097725 46.4869117,215.694346 L52.6003921,206.529399 C53.1674035,205.679702 54.1218755,205.169915 55.1435916,205.169915 L58.2003319,205.169915 L58.2003319,186.565074 C51.6306364,185.461857 46.1781922,180.88051 43.9624224,174.601368 C40.5977291,165.067173 45.6038995,154.611851 55.1435916,151.249451 L55.1435916,128.795339 C55.1435916,127.108224 56.5122369,125.740379 58.2003319,125.740379 L82.654231,125.740379 C84.3423259,125.740379 85.7109712,127.108224 85.7109712,128.795339 L85.7109712,150.180236 L88.7676888,150.180236 L88.7676888,116.57541 C88.7676888,114.888295 90.1363566,113.520406 91.824429,113.520406 L110.16487,113.520406 C111.852943,113.520406 113.221588,112.152538 113.221588,110.465446 C113.221588,108.778331 111.852943,107.410464 110.16487,107.410464 L94.8811918,107.410464 C93.1931194,107.410464 91.824429,106.042597 91.824429,104.355482 L91.824429,102.216985 C91.8359032,97.0044211 87.8502993,92.6521904 82.654231,92.2027467 L82.654231,101.300477 C82.654231,102.987592 81.2855857,104.355482 79.5974908,104.355482 L61.2570721,104.355482 C59.5689771,104.355482 58.2003319,102.987592 58.2003319,101.300477 L58.2003319,92.1935983 C53.0008145,92.6430645 49.0136778,97.0009736 49.0301338,102.216985 L49.0301338,153.235218 L42.9166308,153.235218 L42.9166308,102.216985 C42.904796,94.0575074 48.988092,87.1731057 57.0907225,86.1752758 C52.3199409,82.4226037 49.3858544,76.8079378 49.0301338,70.7506558 L45.9733936,70.7506558 L45.9733936,64.6406915 L49.4611013,64.6406915 C50.9100203,54.5592595 55.9994852,49.7293061 61.8378344,47.6733256 C62.3834982,46.8339705 63.3123392,46.3226286 64.3137897,46.3107988 L76.5407506,46.3107988 C77.5422236,46.3230117 78.4710647,46.8339705 79.0167284,47.6733256 C84.8550776,49.7293061 89.9445425,54.5592595 91.3934616,64.6406915 L94.8811918,64.6406915 L94.8811918,70.7506558 L91.824429,70.7506558 C91.4687084,76.8079378 88.534622,82.4226037 83.7638404,86.1752758 C91.5214353,87.1291888 97.4805673,93.5007389 97.9104076,101.300477 L110.16487,101.300477 C115.229493,101.300477 119.335091,105.403718 119.335091,110.465446 C119.335091,115.527174 115.229493,119.630392 110.16487,119.630392 L94.8811918,119.630392 L94.8811918,150.180236 L97.937932,150.180236 L97.937932,128.795339 C97.937932,127.108224 99.3065772,125.740379 100.994672,125.740379 L125.448571,125.740379 C127.136644,125.740379 128.505289,127.108224 128.505289,128.795339 L128.505289,150.180236 L140.732227,150.180236 L140.732227,128.795339 C140.732227,127.108224 142.100918,125.740379 143.78899,125.740379 L168.242889,125.740379 C169.930962,125.740379 171.299629,127.108224 171.299629,128.795339 L171.299629,150.180236 L180.469827,150.180236 L180.469827,119.630392 L159.072669,119.630392 C154.008045,119.630392 149.90247,115.527174 149.90247,110.465446 C149.90247,105.403718 154.008045,101.300477 159.072669,101.300477 L171.327131,101.300477 C171.756994,93.5007389 177.716103,87.1291888 185.473721,86.1752758 C180.702917,82.4226037 177.768808,76.8079378 177.41311,70.7506558 L174.35637,70.7506558 L174.35637,64.6406915 L177.8441,64.6406915 C179.292974,54.5592595 184.382461,49.7293061 190.22081,47.6733256 C190.766452,46.8339705 191.695315,46.3226286 192.696788,46.3107988 L204.923727,46.3107988 C205.9252,46.3230117 206.854063,46.8339705 207.399682,47.6733256 C213.238054,49.7293061 218.327518,54.5592595 219.776438,64.6406915 L223.264168,64.6406915 L223.264168,70.7506558 L220.207428,70.7506558 C219.851684,76.8079378 216.91762,82.4226037 212.146816,86.1752758 C214.634606,86.4803955 217.016559,87.360986 219.10395,88.7475781 C223.614907,91.7460474 226.324357,96.8023901 226.320976,102.216985 L226.320976,153.235218 Z M61.2570721,54.7914398 C58.1089897,57.1556045 56.0915488,60.7257366 55.6907432,64.6406915 L85.1638197,64.6406915 C84.7629915,60.7257366 82.7455506,57.1556045 79.5974908,54.7914398 L79.5974908,58.5307273 L73.4840329,58.5307273 L73.4840329,52.6498788 C72.471469,52.5051717 71.450136,52.4287848 70.4272927,52.420763 C69.4044043,52.4287848 68.3830939,52.5051717 67.3705299,52.6498788 L67.3705299,58.5307273 L61.2570721,58.5307273 L61.2570721,54.7914398 Z M76.5407506,98.2454949 L76.5407506,92.1355532 L64.3137897,92.1355532 L64.3137897,98.2454949 L76.5407506,98.2454949 Z M146.84573,131.850321 L146.84573,150.180236 L165.186126,150.180236 L165.186126,131.850321 L159.072669,131.850321 L159.072669,141.015267 L152.959188,141.015267 L152.959188,131.850321 L146.84573,131.850321 Z M104.05139,131.850321 L104.05139,150.180236 L122.391831,150.180236 L122.391831,131.850321 L116.278328,131.850321 L116.278328,141.015267 L110.16487,141.015267 L110.16487,131.850321 L104.05139,131.850321 Z M61.2570721,131.850321 L61.2570721,150.180236 L79.5974908,150.180236 L79.5974908,131.850321 L73.4840329,131.850321 L73.4840329,141.015267 L67.3705299,141.015267 L67.3705299,131.850321 L61.2570721,131.850321 Z M49.0301338,168.510129 C49.0301338,175.258949 54.504354,180.730057 61.2570721,180.730057 L61.3518182,180.730057 C60.0909035,179.809358 58.9801896,178.699246 58.0589453,177.439064 C53.1246404,170.689861 54.5991001,161.221305 61.3518182,156.290178 L61.2570721,156.290178 C54.504354,156.290178 49.0301338,161.761286 49.0301338,168.510129 Z M65.7352069,211.279901 L56.7789597,211.279901 L54.7401035,214.334861 L67.7740181,214.334861 L65.7352069,211.279901 Z M70.4272927,177.675075 C75.4919157,177.675075 79.5974908,173.571857 79.5974908,168.510129 C79.5974908,163.448401 75.4919157,159.34516 70.4272927,159.34516 C65.3626245,159.34516 61.2570721,163.448401 61.2570721,168.510129 C61.2570721,173.571857 65.3626245,177.675075 70.4272927,177.675075 Z M79.5027446,180.730057 L104.146136,180.730057 C102.885244,179.809358 101.774507,178.699246 100.853286,177.439064 C95.9189357,170.689861 97.3934405,161.221305 104.146136,156.290178 L79.5027446,156.290178 C83.3939405,159.14928 85.6976035,163.683263 85.7109712,168.510129 C85.6976035,173.337018 83.3939405,177.870955 79.5027446,180.730057 Z M113.221588,177.675075 C118.286234,177.675075 122.391831,173.571857 122.391831,168.510129 C122.391831,163.448401 118.286234,159.34516 113.221588,159.34516 C108.156965,159.34516 104.05139,163.448401 104.05139,168.510129 C104.05139,173.571857 108.156965,177.675075 113.221588,177.675075 Z M122.29704,180.730057 L146.940476,180.730057 C145.679584,179.809358 144.568825,178.699246 143.647626,177.439064 C138.713276,170.689861 140.187758,161.221305 146.940476,156.290178 L122.29704,156.290178 C126.188281,159.14928 128.491921,163.683263 128.505289,168.510129 C128.491921,173.337018 126.188281,177.870955 122.29704,180.730057 Z M156.015928,177.675075 C161.080574,177.675075 165.186126,173.571857 165.186126,168.510129 C165.186126,163.448401 161.080574,159.34516 156.015928,159.34516 C150.951305,159.34516 146.84573,163.448401 146.84573,168.510129 C146.84573,173.571857 150.951305,177.675075 156.015928,177.675075 Z M212.458602,211.279901 L203.502354,211.279901 L201.463498,214.334861 L214.497435,214.334861 L212.458602,211.279901 Z M207.980467,156.290178 L207.885721,156.290178 C209.146613,157.210877 210.257349,158.320989 211.178571,159.581171 C216.112921,166.330375 214.638439,175.798931 207.885721,180.730057 L207.980467,180.730057 C214.733185,180.730057 220.207428,175.258949 220.207428,168.510129 C220.207428,161.761286 214.733185,156.290178 207.980467,156.290178 Z M198.810269,159.34516 C193.745646,159.34516 189.640025,163.448401 189.640025,168.510129 C189.640025,173.571857 193.745646,177.675075 198.810269,177.675075 C203.874892,177.675075 207.980467,173.571857 207.980467,168.510129 C207.980467,163.448401 203.874892,159.34516 198.810269,159.34516 Z M189.734817,156.290178 L165.09138,156.290178 C166.352295,157.210877 167.463054,158.320989 168.384253,159.581171 C173.318603,166.330375 171.844098,175.798931 165.09138,180.730057 L189.734817,180.730057 C185.843576,177.870955 183.539935,173.337018 183.526568,168.510129 C183.539935,163.683263 185.843576,159.14928 189.734817,156.290178 Z M189.640025,54.7914398 C186.492371,57.1556045 184.474525,60.7257366 184.073742,64.6406915 L213.546796,64.6406915 C213.145967,60.7257366 211.128527,57.1556045 207.980467,54.7914398 L207.980467,58.5307273 L201.867009,58.5307273 L201.867009,52.6498788 C199.840754,52.3443986 197.779761,52.3443986 195.753528,52.6498788 L195.753528,58.5307273 L189.640025,58.5307273 L189.640025,54.7914398 Z M204.923727,98.2454949 L204.923727,92.1355532 L192.696788,92.1355532 L192.696788,98.2454949 L204.923727,98.2454949 Z" id="path-19"></path>
    </defs>
    <g id="Page-1" stroke="none" stroke-width="1" fill="none" fill-rule="evenodd">
        <g id="Group-16-Copy">
            <rect id="Rectangle-Copy-3" fill="#00ACB1" x="0" y="0" width="400" height="400" rx="6"></rect>
            <g id="Group-44" transform="translate(60.181818, 85.969697)">
                <mask id="mask-2" fill="white">
                    <use xlink:href="#path-1"></use>
                </mask>
                <use id="Clip-5" fill="#00ACB1" xlink:href="#path-1"></use>
                <mask id="mask-4" fill="white">
                    <use xlink:href="#path-3"></use>
                </mask>
                <g id="Clip-8"></g>
                <mask id="mask-6" fill="white">
                    <use xlink:href="#path-5"></use>
                </mask>
                <g id="Clip-11"></g>
                <mask id="mask-8" fill="white">
                    <use xlink:href="#path-7"></use>
                </mask>
                <g id="Clip-14"></g>
                <mask id="mask-10" fill="white">
                    <use xlink:href="#path-9"></use>
                </mask>
                <g id="Clip-17"></g>
                <mask id="mask-12" fill="white">
                    <use xlink:href="#path-11"></use>
                </mask>
                <g id="Clip-20"></g>
                <polygon id="Fill-19" fill="#FFFFFF" mask="url(#mask-12)" points="64.5861061 171.863621 73.5707447 171.863621 73.5707447 162.878983 64.5861061 162.878983"></polygon>
                <mask id="mask-14" fill="white">
                    <use xlink:href="#path-13"></use>
                </mask>
                <g id="Clip-23"></g>
                <polygon id="Fill-22" fill="#FFFFFF" mask="url(#mask-14)" points="110.043083 171.863621 119.027722 171.863621 119.027722 162.878983 110.043083 162.878983"></polygon>
                <mask id="mask-16" fill="white">
                    <use xlink:href="#path-15"></use>
                </mask>
                <g id="Clip-26"></g>
                <polygon id="Fill-25" fill="#FFFFFF" mask="url(#mask-16)" points="152.469735 171.863621 161.454373 171.863621 161.454373 162.878983 152.469735 162.878983"></polygon>
                <mask id="mask-18" fill="white">
                    <use xlink:href="#path-17"></use>
                </mask>
                <g id="Clip-29"></g>
                <polygon id="Fill-28" fill="#FFFFFF" mask="url(#mask-18)" points="194.606568 171.863621 203.591207 171.863621 203.591207 162.878983 194.606568 162.878983"></polygon>
                <mask id="mask-20" fill="white">
                    <use xlink:href="#path-19"></use>
                </mask>
                <g id="Clip-32"></g>
                <polygon id="Fill-31" fill="#FCFCF7" mask="url(#mask-20)" points="41.4772021 221.881598 227.75824 221.881598 227.75824 44.8740482 41.4772021 44.8740482"></polygon>
            </g>
            <path d="M52.4986976,48.2040531 C51.3973804,47.0478311 50.3313777,46.277028 49.3006578,45.8916206 C48.2699378,45.5062133 47.2321736,45.3135125 46.1873342,45.3135125 C44.6341945,45.3135125 43.2293301,45.5819171 41.9726989,46.1187345 C40.7160677,46.6555519 39.6359458,47.3988263 38.7323009,48.3485801 C37.828656,49.298334 37.1297536,50.4063634 36.6355728,51.6727019 C36.141392,52.9390403 35.8943053,54.3017101 35.8943053,55.7607522 C35.8943053,57.3299106 36.141392,58.7751665 36.6355728,60.0965631 C37.1297536,61.4179597 37.828656,62.5604001 38.7323009,63.5239184 C39.6359458,64.4874368 40.7160677,65.2444756 41.9726989,65.7950575 C43.2293301,66.3456394 44.6341945,66.6209262 46.1873342,66.6209262 C47.4016071,66.6209262 48.5805636,66.3387572 49.7242392,65.7744108 C50.8679148,65.2100643 51.9339174,64.3084999 52.9222791,63.0696906 L57.327526,66.125405 C55.9720586,67.9423253 54.3201075,69.2637021 52.3716232,70.089575 C50.4231388,70.9154479 48.3476105,71.3283781 46.1449761,71.3283781 C43.829386,71.3283781 41.7044403,70.9636231 39.7700754,70.234102 C37.8357105,69.504581 36.1696402,68.4722554 34.7718145,67.1370942 C33.3739887,65.8019331 32.2797476,64.1983873 31.4890583,62.3264087 C30.698369,60.4544302 30.3030303,58.3760146 30.3030303,56.0910997 C30.3030303,53.7511265 30.698369,51.6245358 31.4890583,49.7112636 C32.2797476,47.7979914 33.3739887,46.1669169 34.7718145,44.8179912 C36.1696402,43.4690655 37.8357105,42.4298577 39.7700754,41.7003367 C41.7044403,40.9708157 43.829386,40.6060606 46.1449761,40.6060606 C48.1781771,40.6060606 50.0630957,40.9570513 51.7997882,41.6590433 C53.5364808,42.3610352 55.1531338,43.5516508 56.6497957,45.2309256 L52.4986976,48.2040531 Z M59.458544,60.6746712 C59.458544,59.1055128 59.7479885,57.6809034 60.326886,56.4008005 C60.9057835,55.1206975 61.6894013,54.0264323 62.677763,53.1179722 C63.6661246,52.209512 64.8380215,51.5075306 66.1934889,51.0120069 C67.5489563,50.5164831 68.9891188,50.268725 70.5140196,50.268725 C72.0389204,50.268725 73.4790828,50.5164831 74.8345502,51.0120069 C76.1900176,51.5075306 77.3619145,52.209512 78.3502761,53.1179722 C79.3386378,54.0264323 80.1222556,55.1206975 80.7011531,56.4008005 C81.2800506,57.6809034 81.5694951,59.1055128 81.5694951,60.6746712 C81.5694951,62.2438297 81.2800506,63.6684391 80.7011531,64.948542 C80.1222556,66.228645 79.3386378,67.3229101 78.3502761,68.2313703 C77.3619145,69.1398305 76.1900176,69.8418119 74.8345502,70.3373356 C73.4790828,70.8328593 72.0389204,71.0806175 70.5140196,71.0806175 C68.9891188,71.0806175 67.5489563,70.8328593 66.1934889,70.3373356 C64.8380215,69.8418119 63.6661246,69.1398305 62.677763,68.2313703 C61.6894013,67.3229101 60.9057835,66.228645 60.326886,64.948542 C59.7479885,63.6684391 59.458544,62.2438297 59.458544,60.6746712 Z M64.5415213,60.6746712 C64.5415213,61.4454859 64.6756541,62.1887604 64.9439237,62.9045169 C65.2121932,63.6202734 65.607532,64.2534331 66.1299517,64.804015 C66.6523714,65.3545969 67.2806776,65.7950558 68.0148891,66.125405 C68.7491006,66.4557541 69.5821357,66.6209262 70.5140196,66.6209262 C71.4459034,66.6209262 72.2789385,66.4557541 73.01315,66.125405 C73.7473615,65.7950558 74.3756677,65.3545969 74.8980874,64.804015 C75.4205071,64.2534331 75.8158459,63.6202734 76.0841155,62.9045169 C76.352385,62.1887604 76.4865178,61.4454859 76.4865178,60.6746712 C76.4865178,59.9038566 76.352385,59.1605821 76.0841155,58.4448256 C75.8158459,57.7290691 75.4205071,57.0959094 74.8980874,56.5453275 C74.3756677,55.9947456 73.7473615,55.5542866 73.01315,55.2239375 C72.2789385,54.8935883 71.4459034,54.7284162 70.5140196,54.7284162 C69.5821357,54.7284162 68.7491006,54.8935883 68.0148891,55.2239375 C67.2806776,55.5542866 66.6523714,55.9947456 66.1299517,56.5453275 C65.607532,57.0959094 65.2121932,57.7290691 64.9439237,58.4448256 C64.6756541,59.1605821 64.5415213,59.9038566 64.5415213,60.6746712 Z M86.1149273,50.7642462 L90.9437557,50.7642462 L90.9437557,53.861254 L91.028472,53.861254 C91.4802944,52.9252648 92.2074353,52.0925221 93.2099164,51.3630011 C94.2123975,50.63348 95.5607849,50.268725 97.2551191,50.268725 C100.446115,50.268725 102.564001,51.4937514 103.608841,53.9438409 C104.343052,52.6775025 105.260803,51.7484095 106.36212,51.1565339 C107.463437,50.5646583 108.776527,50.268725 110.301427,50.268725 C111.656895,50.268725 112.800553,50.4889545 113.732437,50.92942 C114.664321,51.3698855 115.4197,51.9755165 115.998598,52.7463312 C116.577495,53.5171459 116.994013,54.4187103 117.248163,55.4510514 C117.502313,56.4833925 117.629386,57.591422 117.629386,58.7751731 L117.629386,70.5850962 L112.546409,70.5850962 L112.546409,59.3532812 C112.546409,58.7476411 112.489932,58.1626566 112.376976,57.5983101 C112.264021,57.0339637 112.066351,56.5384474 111.783962,56.1117464 C111.501573,55.6850454 111.120354,55.347819 110.640293,55.1000572 C110.160231,54.8522953 109.538985,54.7284162 108.776534,54.7284162 C107.985845,54.7284162 107.315181,54.8729418 106.764522,55.1619973 C106.213864,55.4510528 105.762048,55.8364544 105.409062,56.3182136 C105.056075,56.7999728 104.801929,57.3505464 104.646615,57.9699511 C104.491301,58.5893557 104.413645,59.2156333 104.413645,59.8488025 L104.413645,70.5850962 L99.3306681,70.5850962 L99.3306681,58.7751731 C99.3306681,57.5363638 99.0624026,56.5522134 98.5258634,55.8226923 C97.9893242,55.0931713 97.0998121,54.7284162 95.8573004,54.7284162 C95.0101332,54.7284162 94.2971116,54.8660597 93.7182141,55.1413506 C93.1393166,55.4166416 92.6592624,55.7882788 92.2780372,56.2562734 C91.896812,56.7242681 91.6214868,57.2610774 91.4520534,57.8667175 C91.28262,58.4723576 91.1979045,59.1055173 91.1979045,59.7662156 L91.1979045,70.5850962 L86.1149273,70.5850962 L86.1149273,50.7642462 Z M123.191414,50.7642462 L128.020242,50.7642462 L128.020242,53.7373737 L128.104959,53.7373737 C128.83917,52.5260935 129.827517,51.6451757 131.070029,51.0945937 C132.31254,50.5440118 133.653868,50.268725 135.094052,50.268725 C136.647192,50.268725 138.044997,50.5371296 139.287509,51.073947 C140.53002,51.6107644 141.588963,52.3471567 142.464369,53.2831459 C143.339775,54.2191352 144.00338,55.3202825 144.455202,56.5866209 C144.907025,57.8529593 145.132932,59.2156292 145.132932,60.6746712 C145.132932,62.1337133 144.892905,63.4963831 144.412844,64.7627216 C143.932783,66.02906 143.262119,67.1302073 142.400832,68.0661966 C141.539546,69.0021858 140.501781,69.7385781 139.287509,70.2753955 C138.073236,70.8122128 136.746027,71.0806175 135.305843,71.0806175 C134.34572,71.0806175 133.498566,70.9842671 132.764354,70.7915634 C132.030143,70.5988598 131.380658,70.3511016 130.81588,70.0482816 C130.251102,69.7454615 129.771048,69.4219995 129.375703,69.0778858 C128.980358,68.7337721 128.655616,68.3965457 128.401466,68.0661966 L128.274391,68.0661966 L128.274391,80 L123.191414,80 L123.191414,50.7642462 Z M140.049955,60.6746712 C140.049955,59.9038566 139.915822,59.1605821 139.647553,58.4448256 C139.379283,57.7290691 138.983944,57.0959094 138.461525,56.5453275 C137.939105,55.9947456 137.310799,55.5542866 136.576587,55.2239375 C135.842376,54.8935883 135.009341,54.7284162 134.077457,54.7284162 C133.145573,54.7284162 132.312538,54.8935883 131.578326,55.2239375 C130.844115,55.5542866 130.215809,55.9947456 129.693389,56.5453275 C129.170969,57.0959094 128.775631,57.7290691 128.507361,58.4448256 C128.239091,59.1605821 128.104959,59.9038566 128.104959,60.6746712 C128.104959,61.4454859 128.239091,62.1887604 128.507361,62.9045169 C128.775631,63.6202734 129.170969,64.2534331 129.693389,64.804015 C130.215809,65.3545969 130.844115,65.7950558 131.578326,66.125405 C132.312538,66.4557541 133.145573,66.6209262 134.077457,66.6209262 C135.009341,66.6209262 135.842376,66.4557541 136.576587,66.125405 C137.310799,65.7950558 137.939105,65.3545969 138.461525,64.804015 C138.983944,64.2534331 139.379283,63.6202734 139.647553,62.9045169 C139.915822,62.1887604 140.049955,61.4454859 140.049955,60.6746712 Z M153.956537,62.4089956 C154.125971,63.8955668 154.718979,65.0517715 155.735579,65.8776444 C156.75218,66.7035172 157.980554,67.1164475 159.420738,67.1164475 C160.691488,67.1164475 161.757491,66.8618072 162.618778,66.3525189 C163.480064,65.8432306 164.235443,65.2031887 164.884938,64.4323741 L168.527739,67.1164475 C167.341705,68.5479605 166.014496,69.5665218 164.546073,70.1721619 C163.07765,70.777802 161.538653,71.0806175 159.929035,71.0806175 C158.404135,71.0806175 156.963972,70.8328593 155.608505,70.3373356 C154.253037,69.8418119 153.08114,69.1398305 152.092779,68.2313703 C151.104417,67.3229101 150.320799,66.228645 149.741902,64.948542 C149.163004,63.6684391 148.87356,62.2438297 148.87356,60.6746712 C148.87356,59.1055128 149.163004,57.6809034 149.741902,56.4008005 C150.320799,55.1206975 151.104417,54.0264323 152.092779,53.1179722 C153.08114,52.209512 154.253037,51.5075306 155.608505,51.0120069 C156.963972,50.5164831 158.404135,50.268725 159.929035,50.268725 C161.340981,50.268725 162.632891,50.509601 163.804806,50.9913601 C164.97672,51.4731193 165.979186,52.1682186 166.812234,53.0766787 C167.645281,53.9851389 168.294766,55.1069327 168.760708,56.4420939 C169.22665,57.7772551 169.459618,59.3119791 169.459618,61.0463122 L169.459618,62.4089956 L153.956537,62.4089956 Z M164.37664,58.6925862 C164.348402,57.2335442 163.882467,56.0842216 162.978822,55.2445842 C162.075177,54.4049468 160.818564,53.9851344 159.208947,53.9851344 C157.684046,53.9851344 156.476851,54.4118289 155.587326,55.2652309 C154.6978,56.1186329 154.154209,57.2610732 153.956537,58.6925862 L164.37664,58.6925862 Z M171.844785,54.9761769 L171.844785,50.7642462 L176.038241,50.7642462 L176.038241,45.0244584 L181.121218,45.0244584 L181.121218,50.7642462 L186.712493,50.7642462 L186.712493,54.9761769 L181.121218,54.9761769 L181.121218,63.6477987 C181.121218,64.6388462 181.311828,65.4234137 181.693053,66.0015247 C182.074278,66.5796357 182.829658,66.8686869 183.959214,66.8686869 C184.411036,66.8686869 184.90521,66.8205117 185.441749,66.7241598 C185.978288,66.627808 186.401865,66.4695181 186.712493,66.2492853 L186.712493,70.4199225 C186.175954,70.6676844 185.519409,70.8397386 184.742839,70.9360905 C183.96627,71.0324423 183.281486,71.0806175 182.688469,71.0806175 C181.333002,71.0806175 180.224642,70.9360919 179.363355,70.6470364 C178.502069,70.3579809 177.824345,69.917522 177.330164,69.3256464 C176.835983,68.7337708 176.497122,67.9973786 176.313569,67.1164475 C176.130016,66.2355164 176.038241,65.2169551 176.038241,64.0607331 L176.038241,54.9761769 L171.844785,54.9761769 Z M194.773651,62.4089956 C194.943085,63.8955668 195.536093,65.0517715 196.552693,65.8776444 C197.569294,66.7035172 198.797668,67.1164475 200.237852,67.1164475 C201.508602,67.1164475 202.574605,66.8618072 203.435892,66.3525189 C204.297178,65.8432306 205.052558,65.2031887 205.702052,64.4323741 L209.344853,67.1164475 C208.158819,68.5479605 206.83161,69.5665218 205.363187,70.1721619 C203.894764,70.777802 202.355767,71.0806175 200.746149,71.0806175 C199.221249,71.0806175 197.781086,70.8328593 196.425619,70.3373356 C195.070151,69.8418119 193.898255,69.1398305 192.909893,68.2313703 C191.921531,67.3229101 191.137913,66.228645 190.559016,64.948542 C189.980118,63.6684391 189.690674,62.2438297 189.690674,60.6746712 C189.690674,59.1055128 189.980118,57.6809034 190.559016,56.4008005 C191.137913,55.1206975 191.921531,54.0264323 192.909893,53.1179722 C193.898255,52.209512 195.070151,51.5075306 196.425619,51.0120069 C197.781086,50.5164831 199.221249,50.268725 200.746149,50.268725 C202.158095,50.268725 203.450005,50.509601 204.62192,50.9913601 C205.793834,51.4731193 206.7963,52.1682186 207.629348,53.0766787 C208.462396,53.9851389 209.111881,55.1069327 209.577822,56.4420939 C210.043764,57.7772551 210.276732,59.3119791 210.276732,61.0463122 L210.276732,62.4089956 L194.773651,62.4089956 Z M205.193755,58.6925862 C205.165516,57.2335442 204.699581,56.0842216 203.795936,55.2445842 C202.892291,54.4049468 201.635679,53.9851344 200.026061,53.9851344 C198.50116,53.9851344 197.293965,54.4118289 196.40444,55.2652309 C195.514914,56.1186329 194.971324,57.2610732 194.773651,58.6925862 L205.193755,58.6925862 Z M215.033955,50.7642462 L219.862783,50.7642462 L219.862783,53.9438409 L219.947499,53.9438409 C220.427561,52.9527935 221.161761,52.0925221 222.150123,51.3630011 C223.138485,50.63348 224.479812,50.268725 226.174147,50.268725 C227.529614,50.268725 228.680332,50.4889545 229.626335,50.92942 C230.572339,51.3698855 231.341837,51.9479879 231.934854,52.6637444 C232.527871,53.3795009 232.951448,54.2053613 233.205598,55.1413506 C233.459749,56.0773399 233.586822,57.0546081 233.586822,58.0731847 L233.586822,70.5850962 L228.503844,70.5850962 L228.503844,60.5507909 C228.503844,60.000209 228.475606,59.3876958 228.419128,58.713233 C228.36265,58.0387701 228.214398,57.4056104 227.974368,56.8137348 C227.734337,56.2218593 227.360177,55.726343 226.851877,55.3271711 C226.343577,54.9279992 225.651734,54.7284162 224.776328,54.7284162 C223.929161,54.7284162 223.216139,54.8660597 222.637242,55.1413506 C222.058344,55.4166416 221.57829,55.7882788 221.197065,56.2562734 C220.81584,56.7242681 220.540514,57.2610774 220.371081,57.8667175 C220.201647,58.4723576 220.116932,59.1055173 220.116932,59.7662156 L220.116932,70.5850962 L215.033955,70.5850962 L215.033955,50.7642462 Z M236.988584,54.9761769 L236.988584,50.7642462 L241.18204,50.7642462 L241.18204,45.0244584 L246.265018,45.0244584 L246.265018,50.7642462 L251.856293,50.7642462 L251.856293,54.9761769 L246.265018,54.9761769 L246.265018,63.6477987 C246.265018,64.6388462 246.455627,65.4234137 246.836853,66.0015247 C247.218078,66.5796357 247.973457,66.8686869 249.103013,66.8686869 C249.554836,66.8686869 250.049009,66.8205117 250.585548,66.7241598 C251.122087,66.627808 251.545665,66.4695181 251.856293,66.2492853 L251.856293,70.4199225 C251.319753,70.6676844 250.663209,70.8397386 249.886639,70.9360905 C249.110069,71.0324423 248.425286,71.0806175 247.832269,71.0806175 C246.476802,71.0806175 245.368441,70.9360919 244.507155,70.6470364 C243.645868,70.3579809 242.968145,69.917522 242.473964,69.3256464 C241.979783,68.7337708 241.640921,67.9973786 241.457368,67.1164475 C241.273815,66.2355164 241.18204,65.2169551 241.18204,64.0607331 L241.18204,54.9761769 L236.988584,54.9761769 Z M283.566406,47.625945 C283.001628,46.8276012 282.246248,46.2426167 281.300245,45.8709739 C280.354242,45.4993311 279.358835,45.3135125 278.313996,45.3135125 C277.69274,45.3135125 277.092672,45.3823342 276.513775,45.5199797 C275.934877,45.6576252 275.412465,45.8778546 274.946524,46.1806747 C274.480582,46.4834947 274.106422,46.8757785 273.824033,47.3575376 C273.541644,47.8392968 273.400451,48.410517 273.400451,49.0712153 C273.400451,50.0622628 273.753432,50.8193015 274.459405,51.3423544 C275.165377,51.8654072 276.04077,52.3196305 277.08561,52.7050378 C278.130449,53.0904451 279.274108,53.4620824 280.516619,53.8199606 C281.759131,54.1778389 282.90279,54.6733552 283.947629,55.3065244 C284.992468,55.9396936 285.867861,56.7793184 286.573834,57.8254241 C287.279807,58.8715297 287.632788,60.2617282 287.632788,61.9960612 C287.632788,63.5652197 287.336284,64.9347717 286.743267,66.1047583 C286.15025,67.2747449 285.352513,68.2451309 284.350031,69.0159456 C283.34755,69.7867603 282.182713,70.3648627 280.855485,70.75027 C279.528256,71.1356773 278.130451,71.3283781 276.662028,71.3283781 C274.798261,71.3283781 273.005117,71.0255626 271.282544,70.4199225 C269.559971,69.8142824 268.077451,68.7957211 266.834939,67.3642081 L270.858963,63.5652119 C271.508457,64.5287302 272.362671,65.2788868 273.42163,65.8157042 C274.480589,66.3525216 275.603069,66.6209262 276.789103,66.6209262 C277.410359,66.6209262 278.031605,66.5383402 278.652861,66.3731656 C279.274117,66.207991 279.838887,65.9602329 280.347187,65.6298837 C280.855487,65.2995346 281.264945,64.8797222 281.575573,64.3704339 C281.886201,63.8611456 282.041513,63.2761611 282.041513,62.6154628 C282.041513,61.5418281 281.688532,60.7159676 280.982559,60.1378566 C280.276586,59.5597455 279.401194,59.0711114 278.356354,58.6719395 C277.311515,58.2727676 276.167856,57.8942482 274.925344,57.53637 C273.682833,57.1784917 272.539174,56.6898576 271.494335,56.070453 C270.449495,55.4510483 269.574102,54.6251878 268.86813,53.5928467 C268.162157,52.5605056 267.809176,51.1771893 267.809176,49.4428562 C267.809176,47.928756 268.126859,46.6211435 268.762235,45.5199797 C269.39761,44.4188158 270.230645,43.5034871 271.261365,42.7739661 C272.292085,42.044445 273.471042,41.5007535 274.79827,41.1428753 C276.125498,40.784997 277.480946,40.6060606 278.864652,40.6060606 C280.44603,40.6060606 281.977968,40.8400544 283.46051,41.308049 C284.943053,41.7760437 286.277321,42.5468468 287.463355,43.6204815 L283.566406,47.625945 Z M293.32189,41.3493425 L301.454653,41.3493425 L309.460342,61.8308875 L317.550748,41.3493425 L325.598795,41.3493425 L325.598795,70.5850962 L320.515818,70.5850962 L320.515818,46.304555 L320.431102,46.304555 L311.324101,70.5850962 L307.596584,70.5850962 L298.489583,46.304555 L298.404867,46.304555 L298.404867,70.5850962 L293.32189,70.5850962 L293.32189,41.3493425 Z M332.431567,41.3493425 L352.297537,41.3493425 L352.297537,46.0567944 L337.768693,46.0567944 L337.768693,53.2418525 L351.53509,53.2418525 L351.53509,57.9493044 L337.768693,57.9493044 L337.768693,65.8776444 L353.059983,65.8776444 L353.059983,70.5850962 L332.431567,70.5850962 L332.431567,41.3493425 Z M368.703249,56.2562734 C367.714887,54.9073477 366.387679,54.232895 364.721584,54.232895 C364.04385,54.232895 363.380246,54.3980671 362.730751,54.7284162 C362.081256,55.0587654 361.756514,55.5955747 361.756514,56.3388603 C361.756514,56.9445004 362.024779,57.3849593 362.561318,57.6602503 C363.097857,57.9355413 363.775581,58.1695351 364.594509,58.3622387 C365.413437,58.5549424 366.29589,58.7545254 367.241893,58.9609936 C368.187896,59.1674618 369.070349,59.4840417 369.889277,59.9107426 C370.708205,60.3374436 371.385929,60.9224281 371.922468,61.6657137 C372.459007,62.4089993 372.727273,63.4275606 372.727273,64.7214281 C372.727273,65.9051792 372.466067,66.903094 371.943647,67.7152023 C371.421227,68.5273107 370.743504,69.1811169 369.910456,69.6766406 C369.077409,70.1721643 368.138479,70.5300372 367.09364,70.75027 C366.0488,70.9705028 365.003976,71.0806175 363.959137,71.0806175 C362.377758,71.0806175 360.923477,70.860388 359.596248,70.4199225 C358.26902,69.979457 357.083004,69.1811252 356.038164,68.0249031 L359.426816,64.9278953 C360.07631,65.6436518 360.775213,66.2286363 361.523544,66.6828664 C362.271875,67.1370965 363.182566,67.3642081 364.255644,67.3642081 C364.62275,67.3642081 365.003969,67.3229151 365.399314,67.2403278 C365.794659,67.1577405 366.161759,67.0200971 366.500626,66.8273934 C366.839492,66.6346898 367.114818,66.3938138 367.326609,66.1047583 C367.538401,65.8157028 367.644295,65.4784764 367.644295,65.0930691 C367.644295,64.4048417 367.37603,63.895561 366.839491,63.5652119 C366.302952,63.2348627 365.625228,62.9664581 364.8063,62.7599898 C363.987372,62.5535216 363.104919,62.3608208 362.158916,62.1818817 C361.212913,62.0029426 360.33046,61.7138914 359.511532,61.3147195 C358.692604,60.9155476 358.01488,60.3580918 357.478341,59.6423353 C356.941802,58.9265788 356.673536,57.9355462 356.673536,56.6692078 C356.673536,55.568044 356.906504,54.6114222 357.372446,53.7993139 C357.838388,52.9872056 358.452574,52.319635 359.215025,51.7965822 C359.977475,51.2735294 360.852868,50.8881278 361.84123,50.6403659 C362.829591,50.3926041 363.832057,50.268725 364.848658,50.268725 C366.204125,50.268725 367.545453,50.4958366 368.872682,50.9500667 C370.19991,51.4042968 371.272972,52.1819821 372.091901,53.2831459 L368.703249,56.2562734 Z" id="Competent-SMEs" fill="#FFFFFF"></path>
        </g>
    </g>
</svg>