<?xml version="1.0" encoding="UTF-8"?>
<svg width="400px" height="400px" viewBox="0 0 400 400" version="1.1" xmlns="http://www.w3.org/2000/svg" xmlns:xlink="http://www.w3.org/1999/xlink">
    <!-- Generator: Sketch 52.3 (67297) - http://www.bohemiancoding.com/sketch -->
    <title>Group 5 Copy</title>
    <desc>Created with Sketch.</desc>
    <g id="Page-1" stroke="none" stroke-width="1" fill="none" fill-rule="evenodd">
        <g id="Group-5-Copy">
            <rect id="Rectangle" fill="#7ECBDB" x="0" y="0" width="400" height="400" rx="6"></rect>
            <g id="Group-46" transform="translate(75.181818, 113.969697)">
                <g id="Group-45" transform="translate(0.575758, 0.575758)">
                    <polygon id="Path-2" fill="#FFFFFF" points="27.0551342 190.313048 30.3735937 190.313048 31.9874485 235.273915 50.4372722 235.733082 50.4372722 226.423669 75.7546656 226.423669 75.7546656 221.808086 84.6692031 221.808086 84.6692031 235.733082 94.9684868 235.733082 94.9684868 246.848056 24.823441 246.848056"></polygon>
                    <path d="M19.3014641,181.36345 L23.8073574,183.369603 C25.9251071,178.34446 27.6582105,175.139417 29.0066677,173.754472 C31.0293536,171.677056 35.6591757,166.942397 41.6290169,167.694163 C45.608911,168.195341 49.3563943,168.046416 52.8714668,167.247389 L61.3060509,150.690014 L56.4345613,154.264745 C52.4632732,154.28353 49.596582,154.58612 47.8344879,155.172513 C46.0723938,155.758907 43.8609628,157.140023 41.200195,159.315861 C33.4890139,160.759395 28.3604538,163.119935 25.8145148,166.397481 C23.2685758,169.675027 21.9207705,172.814719 21.7710991,175.816558 L19.3014641,181.36345 Z" id="Path-15" fill="#4E4E4E" transform="translate(40.303758, 167.029808) rotate(-24.000000) translate(-40.303758, -167.029808) "></path>
                    <path d="M64.9918115,120.619119 L57.1659212,139.61246 C58.2517274,141.739056 59.8821697,142.875766 62.0572479,143.022592 C64.2323262,143.169417 66.7990186,142.804618 69.7573252,141.928193 C70.9815932,144.763767 73.0867853,146.544584 76.0729015,147.270645 C79.0590176,147.996706 82.4298756,147.467486 86.1854753,145.682985 C88.0831504,148.900879 90.8040361,151.298793 94.3481323,152.876726 C97.8922284,154.454659 101.956795,154.691207 106.541831,153.58637 C108.351339,156.737292 111.014599,158.995133 114.531613,160.359891 C118.048627,161.724649 121.413693,161.655292 124.626809,160.151819 C126.817233,163.607938 128.934013,166.125741 130.977148,167.705229 C133.020284,169.284716 136.244811,170.896118 140.650728,172.539434 C148.069422,156.711302 152.841682,146.477157 154.967508,141.837 L138.030535,136.856486 L134.576047,137.805465 C130.449978,133.90093 126.970592,131.420432 124.137888,130.363971 C121.305185,129.30751 117.523759,129.447775 112.793611,130.784765 C108.624678,127.074632 105.173619,125.07462 102.440436,124.784731 C99.7072519,124.494841 96.1637017,124.977325 91.809785,126.232181 C89.1143644,123.82604 86.2331389,122.543236 83.1661084,122.383769 C80.099078,122.224301 76.8980293,122.908125 73.5629623,124.435241 C72.6461515,123.236612 71.4111616,122.291541 69.8579928,121.600025 C68.3048239,120.90851 66.6827635,120.581541 64.9918115,120.619119 Z" id="Path-16" fill="#4E4E4E" transform="translate(106.066715, 146.577824) rotate(-25.000000) translate(-106.066715, -146.577824) "></path>
                    <polygon id="Path-6" fill="#FFFFFF" points="12.9871681 163.771601 10.1074162 218.468888 24.7155317 218.468888 24.7155317 209.277981 18.1707249 211.29973 16.599959 163.771601"></polygon>
                    <polygon id="Path-7" fill="#FFFFFF" points="31.8795392 206.844478 35.5837232 205.965139 35.5837232 212.252337 52.8443142 204.189352 52.8443142 212.252337 69.557679 204.086318 69.557679 218.468888 32.9853604 219.355974"></polygon>
                    <path d="M2.97548648,144.020793 C6.50025995,154.492422 8.09014964,161.778909 7.74515552,165.880255 C7.40016141,169.981601 5.20353135,177.085711 1.15526535,187.192587 L10.1074162,187.192587 L11.9690709,158.427295 C10.7279678,154.61648 9.72345448,151.79319 8.95553099,149.957425 C8.1876075,148.121661 8.50258077,146.142783 9.90045079,144.020793 L2.97548648,144.020793 Z" id="Path-8" fill="#FFFFFF"></path>
                    <path d="M18.1707249,186.676398 L26.8099849,186.676398 C24.8245186,180.812098 24.3281521,176.392446 25.3208852,173.417444 C26.3136183,170.442441 29.7345643,166.296154 35.5837232,160.978582 L40.9297521,143.183595 L23.9302384,143.183595 C20.719837,145.648803 18.7999992,148.313463 18.1707249,151.177576 C17.5414507,154.041689 17.2268136,157.772212 17.2268136,162.369146 L18.1707249,186.676398 Z" id="Path-9" fill="#FFFFFF"></path>
                    <path d="M36.0850814,172.805986 C35.0566822,174.438652 34.2687797,176.246179 33.7213739,178.228567 C32.9002652,181.202148 33.5575004,185.383543 32.7185198,186.676398 L41.7846597,186.676398 C39.1962558,183.687506 37.6852324,181.078893 37.2515898,178.850556 C36.8179471,176.62222 36.429111,174.607363 36.0850814,172.805986 Z" id="Path-10" fill="#FFFFFF"></path>
                    <ellipse id="Oval-Copy" fill="#4E4E4E" transform="translate(184.475232, 22.143256) rotate(-360.000000) translate(-184.475232, -22.143256) " cx="184.475232" cy="22.1432558" rx="9.27369272" ry="20.1700116"></ellipse>
                    <path d="M208.229401,7.26798361 L199.006438,5.15401953 C191.541006,11.2492862 187.207639,17.4361925 186.006339,23.7147386 C184.805039,29.9932847 185.639138,37.2256387 188.508636,45.4118005 L196.909313,46.5264212 C194.421965,37.9233847 194.421965,30.3194905 196.909313,23.7147386 C199.396661,17.1099868 203.170024,11.6277351 208.229401,7.26798361 Z" id="Path-19" fill="#D8D8D8" transform="translate(196.851991, 25.840220) rotate(-345.000000) translate(-196.851991, -25.840220) "></path>
                    <ellipse id="Oval" fill="#4E4E4E" transform="translate(202.640697, 28.802155) rotate(-690.000000) translate(-202.640697, -28.802155) " cx="202.640697" cy="28.8021549" rx="8.23938268" ry="20.1700116"></ellipse>
                    <path d="M232.183727,46.704586 L234.360277,21.5569644 C239.648684,22.706738 242.027072,26.8980083 241.495442,34.1307752 C240.963813,41.3635421 237.859907,45.5548124 232.183727,46.704586 Z" id="Path-21" fill="#4E4E4E"></path>
                    <path d="M234.424865,21.5569644 L225.658847,19.9223143 L222.714211,41.8283566 C225.909616,45.0791762 228.061579,46.704586 229.170099,46.704586 C230.278619,46.704586 231.33674,46.704586 232.344464,46.704586 L234.424865,21.5569644 Z" id="Path-22" fill="#D8D8D8"></path>
                    <path d="M216.904145,36.5801145 L227.093625,38.11187 C231.26355,41.4147577 232.3888,46.3705414 230.469373,52.9792213 C228.187383,61.1103638 222.83991,63.385339 214.426954,59.8041471 L216.904145,36.5801145 Z" id="Path-23" fill="#D8D8D8" transform="translate(222.901931, 49.013376) rotate(154.000000) translate(-222.901931, -49.013376) "></path>
                    <path d="M222.328568,59.2740009 L224.505118,36.1949994 C229.793525,37.2501937 232.171913,41.0966939 231.640283,47.7345001 C231.108654,54.3723063 228.004748,58.2188066 222.328568,59.2740009 Z" id="Path-21" fill="#4E4E4E" transform="translate(227.020847, 47.734500) rotate(154.000000) translate(-227.020847, -47.734500) "></path>
                    <path d="M2.97548648,142.985996 L40.8649008,141.795662 C44.9338015,135.534334 46.2003142,129.657075 44.6644388,124.163885 C48.8231759,121.735719 51.2261727,118.682474 51.8734293,115.00415 C52.5206859,111.325827 52.7514562,107.098558 52.56574,102.322344 L59.6391408,101.319969 L104.821088,49.8149629 L95.174464,29.5253009 L48.2696712,49.2868375 C39.5839216,49.8886378 34.1205443,51.5025343 31.8795392,54.128527 C29.6385341,56.7545196 27.8171831,61.8535158 26.4154861,69.4255156 C19.3710762,71.1537624 14.8919621,75.2325836 12.9781438,81.6619794 C11.0643254,88.0913751 11.0673335,93.155198 12.9871681,96.853448 C7.96105912,98.9757124 5.03591827,102.962188 4.21174555,108.812875 C3.38757284,114.663563 3.90534413,119.250474 5.76505945,122.573609 C2.16532435,126.140286 0.365456799,129.642228 0.365456799,133.079435 C0.365456799,136.516642 1.23546669,139.818829 2.97548648,142.985996 Z" id="Path-18" fill="#606060"></path>
                    <path d="M16.599959,161.508079 C15.2038944,157.31817 15.2038944,153.874669 16.599959,151.177576 C17.9960237,148.480483 20.4394501,145.353178 23.9302384,141.795662 C26.3168042,138.831708 27.14522,135.852307 26.4154861,132.857459 C25.3208852,128.365186 24.2262843,121.497294 25.3208852,118.990144 C26.4154861,116.482995 34.1850139,111.942135 36.0850814,109.485027 C37.9851489,107.027919 40.3291153,97.0773718 40.3291153,91.3060729 C40.3291153,85.5347741 46.851608,87.153804 49.8479611,84.0873466 C52.8443142,81.0208891 55.896186,68.8229223 58.3436056,68.8229223 C60.7910253,68.8229223 64.8074997,68.8229223 66.7000983,68.8229223 C68.0832527,62.6927619 70.5300863,58.9381417 74.0405989,57.5590617 C79.3063679,55.4904416 86.0366043,55.4829908 86.738825,55.0675476 C87.4410456,54.6521044 89.2172635,46.5747685 93.6674973,45.9921538 C96.6343198,45.6037441 100.10408,46.0309599 104.076777,47.2738014 L108.557442,43.9473779 L105.640183,37.6626219 L110.956967,42.3203997 C115.76247,39.775592 119.607761,38.864826 122.492842,39.5881019 C126.820462,40.6730156 126.604434,42.3203997 131.138644,42.3203997 C134.161451,42.3203997 137.056048,40.7678071 139.822434,37.6626219 C144.565134,38.9462752 148.581779,39.5881019 151.872371,39.5881019 C155.162962,39.5881019 159.633392,38.2263265 165.283659,35.5027757 C169.249842,38.7230714 172.758601,40.7474618 175.809936,41.5759467 C178.861271,42.4044316 181.82436,42.8204314 184.699203,42.8239462 C178.708978,36.8502268 176.089194,30.1001593 176.839852,22.5737437 C177.965839,11.2841205 181.213508,0.182227689 184.699203,1.26509135 C172.766879,1.42782263 166.295031,2.76234102 165.283659,5.26864654 C158.044367,2.59960975 152.72416,1.26509135 149.323037,1.26509135 C145.921915,1.26509135 141.749712,3.25094077 136.806428,7.22263962 C130.038731,4.47393912 124.75947,3.82260809 120.968644,5.26864654 C115.282406,7.43770422 107.380666,11.2185322 106.867017,13.0713536 C97.7876769,12.2667909 91.312353,12.884398 87.4410456,14.9241749 C83.5697382,16.9639518 80.2923281,21.0378315 77.6088153,27.1458142 C70.038198,25.3560316 63.8563127,26.7596071 59.0631594,31.3565406 C54.270006,35.9534741 50.4303368,41.9302398 47.5441519,49.2868375 C39.5705327,51.5083565 34.3489952,54.4352493 31.8795392,58.067516 C29.4100832,61.6997827 28.2895807,66.186535 28.5180316,71.5277731 C28.2496375,73.7020833 27.548789,75.3513388 26.4154861,76.4755396 C24.7155317,78.1618407 18.2306084,80.8729868 18.1707249,87.144065 C18.1108415,93.4151432 20.6040372,96.3274043 19.3033243,100.539023 C18.0026115,104.750641 10.6833976,109.485027 10.6833976,118.990144 C10.6833976,128.495262 14.2763192,128.071788 14.2763192,130.464624 C14.2763192,132.857459 14.037691,135.720224 11.9690709,138.235245 C9.90045079,140.750266 9.11750394,145.393334 9.90045079,148.802559 C10.4224154,151.075375 11.448313,153.756821 12.9781438,156.846896 L12.9781438,161.508079 L16.599959,161.508079 Z" id="Path-17" fill="#D8D8D8"></path>
                    <polygon id="Path-2-Copy" fill="#FFFFFF" points="53.9471953 136.528926 57.2656548 136.528926 58.8795096 181.489792 66.9862329 181.94896 66.9862329 172.639547 92.3036263 172.639547 92.3036263 168.023963 101.218164 168.023963 101.218164 181.94896 111.517448 181.94896 111.517448 193.063933 51.7155021 193.063933"></polygon>
                    <path d="M57.4787127,134.489355 C60.3769593,130.091215 62.5199243,126.742911 63.9076079,124.444444 C65.9891332,120.996744 66.837183,114.912607 69.557679,110.714505 C72.278175,106.516404 75.5098953,107.313517 76.3353104,103.101899 C77.1607255,98.8902806 77.9089542,99.1068411 80.0263912,97.9136369 C82.1438282,96.7204327 85.8456356,92.7908211 85.8456356,89.967443 C85.8456356,87.144065 93.293401,88.5503505 95.2812707,84.0873466 C97.2691405,79.6243426 95.3000364,75.8891012 99.0018438,75.8891012 C102.703651,75.8891012 102.586585,78.5335649 106.867017,77.211333 C109.720639,76.3298451 112.525769,74.4334202 115.282406,71.5220582 C120.457504,74.2474222 124.547775,75.3102188 127.553218,74.7104479 C123.172913,71.2219031 120.414753,67.2425192 119.278738,62.7722961 L108.677837,44.7036031 C106.106671,46.132994 104.821088,47.1389147 104.821088,47.7213654 C104.821088,48.5950413 100.588286,45.2069689 96.1157299,46.4641671 C91.6431737,47.7213654 90.2527399,49.3770711 87.4410456,55.4904416 C80.0062716,54.5407773 74.9746918,56.2334888 72.3463064,60.5685763 C69.7179209,64.9036639 68.0887962,70.0105055 67.4589323,75.8891012 C62.245738,77.6818431 59.6391408,80.4145915 59.6391408,84.0873466 C59.6391408,87.7601016 60.0231023,90.5743358 60.7910253,92.5300491 C56.8754469,93.9624579 54.9176577,96.0825351 54.9176577,98.8902806 C54.9176577,101.698026 55.5093417,104.472357 56.6927098,107.213274 C57.2677393,108.467201 57.2677393,109.634278 56.6927098,110.714505 C55.8301656,112.334846 52.8415905,114.917126 53.8796241,117.956935 C54.9176577,120.996744 55.9556912,121.611324 54.9176577,124.163885 C53.8796241,126.716447 52.8443142,128.36838 52.8443142,130.184414 C52.8443142,131.395103 53.1894175,132.830084 53.8796241,134.489355 L57.4787127,134.489355 Z" id="Path-13" fill="#4E4E4E"></path>
                    <path d="M157.755657,124.117049 L150.209596,122.425878 C144.101515,127.302091 140.556033,132.251616 139.573151,137.274453 C138.590269,142.29729 139.272714,148.083173 141.620485,154.632103 L148.493766,155.523799 C146.458663,148.64137 146.458663,142.558255 148.493766,137.274453 C150.528869,131.990652 153.616166,127.60485 157.755657,124.117049 Z" id="Path-19" fill="#4E4E4E" transform="translate(148.446866, 138.974839) rotate(-380.000000) translate(-148.446866, -138.974839) "></path>
                    <path d="M152.715876,155.833007 C156.409763,155.761603 159.558608,148.253136 159.749019,139.062377 C159.93943,129.871618 156.502398,121.831999 152.808512,121.903403 C149.114626,121.974807 146.562685,130.130195 146.372274,139.320954 C146.181863,148.511713 149.02199,155.904411 152.715876,155.833007 Z" id="Oval" fill="#D8D8D8" transform="translate(153.059905, 138.868225) rotate(-725.000000) translate(-153.059905, -138.868225) "></path>
                    <path d="M154.91597,102.203257 L156.967564,78.0280615 C161.952362,79.1333749 164.194206,83.1625741 163.693098,90.115659 C163.191989,97.068744 160.26628,101.097943 154.91597,102.203257 Z" id="Path-21" fill="#4E4E4E" transform="translate(159.338864, 90.115659) rotate(-285.000000) translate(-159.338864, -90.115659) "></path>
                    <path d="M163.590536,71.0476176 L155.327776,69.4761773 L152.552192,90.5351409 C155.564148,93.6602554 157.592566,95.2228126 158.637446,95.2228126 C159.682326,95.2228126 160.6797,95.2228126 161.62957,95.2228126 L163.590536,71.0476176 Z" id="Path-22" fill="#D8D8D8" transform="translate(158.071364, 82.349495) rotate(-285.000000) translate(-158.071364, -82.349495) "></path>
                    <path d="M159.289993,76.9358906 L161.341587,52.7606956 C166.326385,53.866009 168.568229,57.8952081 168.067121,64.8482931 C167.566012,71.8013781 164.640303,75.8305773 159.289993,76.9358906 Z" id="Path-21" fill="#4E4E4E" transform="translate(163.712887, 64.848293) rotate(-22.000000) translate(-163.712887, -64.848293) "></path>
                    <path d="M161.678252,55.7509253 L153.415493,54.1794851 L150.639908,75.2384486 C153.651865,78.3635631 155.680283,79.9261204 156.725162,79.9261204 C157.770042,79.9261204 158.767417,79.9261204 159.717286,79.9261204 L161.678252,55.7509253 Z" id="Path-22" fill="#D8D8D8" transform="translate(156.159080, 67.052803) rotate(-22.000000) translate(-156.159080, -67.052803) "></path>
                    <polygon id="Path-3" fill="#FFFFFF" points="132.090517 166.85305 142.48828 166.85305 137.663024 83.1354516 135.40453 83.1354516"></polygon>
                    <path d="M137.835169,87.3419552 C131.420469,98.1861928 127.240114,104.600763 125.294107,106.585667 C123.348099,108.570571 118.129018,113.882346 109.636865,122.520992 C118.530435,106.799229 123.749515,98.2821489 125.294107,96.9697521 C126.838698,95.6573553 130.283048,92.2947858 135.627156,86.8820436 L137.835169,87.3419552 Z" id="Path-11" fill="#FFFFFF" transform="translate(123.736017, 104.701518) rotate(-12.000000) translate(-123.736017, -104.701518) "></path>
                    <path d="M133.206253,40.2234001 C126.791552,51.0676377 122.611198,57.4822084 120.66519,59.4671121 C118.719182,61.4520158 113.500102,66.7637908 105.007948,75.402437 C113.901518,59.6806738 119.120599,51.1635938 120.66519,49.851197 C122.209781,48.5388002 125.654131,45.1762307 130.99824,39.7634885 L133.206253,40.2234001 Z" id="Path-11-Copy" fill="#FFFFFF" transform="translate(119.107100, 57.582963) rotate(-252.000000) translate(-119.107100, -57.582963) "></path>
                    <path d="M173.741364,60.5548232 C167.326664,71.3990608 163.146309,77.8136315 161.200301,79.7985352 C159.254294,81.7834389 154.035213,87.0952139 145.543059,95.7338602 C154.43663,80.0120969 159.65571,71.4950169 161.200301,70.1826202 C162.744893,68.8702234 166.189242,65.5076539 171.533351,60.0949117 L173.741364,60.5548232 Z" id="Path-11-Copy-2" fill="#FFFFFF" transform="translate(159.642212, 77.914386) rotate(227.000000) translate(-159.642212, -77.914386) "></path>
                    <path d="M135.236509,76.4138887 C131.240594,77.0205107 129.242637,78.090662 129.242637,79.6243426 C129.242637,81.9248635 134.652471,82.9472858 135.541121,82.67554 C136.42977,82.4037942 137.777321,80.5616464 137.428484,79.0445368 C137.195927,78.0331304 136.465269,77.1562477 135.236509,76.4138887 Z" id="Path-12" fill="#FFFFFF"></path>
                    <path d="M192.374224,176.858659 L194.433262,153.077886 C199.41806,154.1832 201.659904,158.212399 201.158796,165.165484 C200.657687,172.118569 197.729497,176.016294 192.374224,176.858659 Z" id="Path-21" fill="#4E4E4E"></path>
                    <path d="M183.40596,152.496278 L177.717466,155.198151 C173.611791,159.978814 172.484166,164.809135 174.334591,169.689113 C177.110228,177.00908 179.392809,177.280326 182.290149,177.280326 C184.221709,177.280326 185.972726,177.054977 187.543201,176.60428 L180.928388,170.33247 L183.40596,152.496278 Z" id="Path-24" fill="#D8D8D8"></path>
                    <path d="M177.893884,176.858659 L179.952921,153.077886 C184.937719,154.1832 187.179564,158.212399 186.678455,165.165484 C186.177346,172.118569 183.249156,176.016294 177.893884,176.858659 Z" id="Path-21" fill="#4E4E4E" transform="translate(182.320500, 164.968273) rotate(-195.000000) translate(-182.320500, -164.968273) "></path>
                    <path d="M194.372765,153.077886 L186.882772,153.077886 L184.107188,174.13685 C185.297183,175.559736 186.51074,176.463948 187.747857,176.849487 C188.984974,177.235025 190.51351,177.235025 192.333464,176.849487 L194.372765,153.077886 Z" id="Path-22" fill="#D8D8D8"></path>
                    <polygon id="Path-3" fill="#FFFFFF" points="158.982578 249.597853 169.380341 249.597853 164.555085 165.880255 162.296591 165.880255"></polygon>
                    <path d="M160.58999,165.949518 C154.17529,176.793756 149.994935,183.208327 148.048928,185.19323 C146.10292,187.178134 140.883839,192.489909 132.391685,201.128555 C141.285256,185.406792 146.504336,176.889712 148.048928,175.577315 C149.593519,174.264919 153.037869,170.902349 158.381977,165.489607 L160.58999,165.949518 Z" id="Path-11" fill="#FFFFFF"></path>
                    <path d="M166.304174,118.830963 C159.889474,129.675201 155.709119,136.089772 153.763112,138.074675 C151.817104,140.059579 146.598023,145.371354 138.10587,154.01 C146.99944,138.288237 152.21852,129.771157 153.763112,128.45876 C155.307703,127.146363 158.752053,123.783794 164.096161,118.371052 L166.304174,118.830963 Z" id="Path-11-Copy" fill="#FFFFFF" transform="translate(152.205022, 136.190526) rotate(122.000000) translate(-152.205022, -136.190526) "></path>
                    <path d="M200.633425,147.436867 C194.218725,158.281104 190.03837,164.695675 188.092363,166.680579 C186.146355,168.665482 180.927274,173.977257 172.43512,182.615904 C181.328691,166.894141 186.547771,158.377061 188.092363,157.064664 C189.636954,155.752267 193.081304,152.389697 198.425412,146.976955 L200.633425,147.436867 Z" id="Path-11-Copy-2" fill="#FFFFFF" transform="translate(186.534273, 164.796429) rotate(242.000000) translate(-186.534273, -164.796429) "></path>
                    <path d="M162.12857,159.158692 C158.132656,159.765314 156.134698,160.835465 156.134698,162.369146 C156.134698,164.669667 161.544533,165.692089 162.433182,165.420343 C163.321831,165.148598 164.669382,163.30645 164.320546,161.78934 C164.087988,160.777934 163.35733,159.901051 162.12857,159.158692 Z" id="Path-12" fill="#FFFFFF"></path>
                    <polygon id="Path-3" fill="#FFFFFF" transform="translate(222.991538, 88.201439) rotate(-24.000000) translate(-222.991538, -88.201439) " points="217.792656 130.060238 228.190419 130.060238 223.365163 46.3426396 221.106669 46.3426396"></polygon>
                    <path d="M217.198798,57.7880295 C210.784097,68.6322671 206.603743,75.0468377 204.657735,77.0317415 C202.711727,79.0166452 197.492647,84.3284202 189.000493,92.9670664 C197.894063,77.2453032 203.113144,68.7282232 204.657735,67.4158264 C206.202326,66.1034296 209.646676,62.7408601 214.990785,57.3281179 L217.198798,57.7880295 Z" id="Path-11" fill="#FFFFFF" transform="translate(203.099645, 75.147592) rotate(-39.000000) translate(-203.099645, -75.147592) "></path>
                    <path d="M192.911021,18.6247798 C186.496321,29.4690173 182.315967,35.883588 180.369959,37.8684917 C178.423951,39.8533954 173.20487,45.1651704 164.712717,53.8038167 C173.606287,38.0820535 178.825368,29.5649735 180.369959,28.2525767 C181.91455,26.9401799 185.3589,23.5776104 190.703008,18.1648682 L192.911021,18.6247798 Z" id="Path-11-Copy" fill="#FFFFFF" transform="translate(178.811869, 35.984342) rotate(83.000000) translate(-178.811869, -35.984342) "></path>
                    <path d="M242.113282,16.3142681 C235.698581,27.1585056 231.518227,33.5730763 229.572219,35.55798 C227.626212,37.5428837 222.407131,42.8546587 213.914977,51.493305 C222.808548,35.7715418 228.027628,27.2544618 229.572219,25.942065 C231.116811,24.6296682 234.56116,21.2670987 239.905269,15.8543565 L242.113282,16.3142681 Z" id="Path-11-Copy-2" fill="#FFFFFF" transform="translate(228.014130, 33.673831) rotate(201.000000) translate(-228.014130, -33.673831) "></path>
                    <path d="M202.800752,45.1452441 C198.804838,45.7518661 196.80688,46.8220175 196.80688,48.3556981 C196.80688,50.656219 202.216715,51.6786412 203.105364,51.4068955 C203.994013,51.1351497 205.341564,49.2930019 204.992728,47.7758923 C204.76017,46.7644859 204.029512,45.8876032 202.800752,45.1452441 Z" id="Path-12" fill="#FFFFFF" transform="translate(200.928008, 48.297477) rotate(-24.000000) translate(-200.928008, -48.297477) "></path>
                    <path d="M125.168438,59.6260338 L111.759161,42.700547 C114.309157,41.260836 116.413607,40.4239817 118.072512,40.1899841 C119.731417,39.9559864 121.749288,39.9559864 124.126126,40.1899841 C126.410854,43.8162033 127.553218,46.8484878 127.553218,49.2868375 L125.168438,59.6260338 Z" id="Path-14" fill="#4E4E4E"></path>
                    <path d="M127.939986,62.5555215 C128.166804,60.9918449 129.287717,59.4403021 129.323332,57.7212634 C129.513743,48.5305043 126.076711,40.4908851 122.382824,40.5622893 C119.822554,40.6117803 117.810876,44.5448327 116.753878,50.014459 L127.939986,62.5555215 Z" id="Oval" fill="#D8D8D8" transform="translate(123.042384, 51.558669) rotate(-358.000000) translate(-123.042384, -51.558669) "></path>
                    <path d="M178.797945,122.573609 L171.743932,120.854369 C166.034134,125.811515 162.719839,130.84319 161.801047,135.949394 C160.882255,141.055598 161.5202,146.937512 163.714883,153.595138 L170.139985,154.501634 C168.237583,147.504974 168.237583,141.320894 170.139985,135.949394 C172.042386,130.577894 174.928373,126.1193 178.797945,122.573609 Z" id="Path-19" fill="#4E4E4E"></path>
                    <ellipse id="Oval" fill="#D8D8D8" transform="translate(175.065967, 138.588008) rotate(-345.000000) translate(-175.065967, -138.588008) " cx="175.065967" cy="138.588008" rx="6.20586026" ry="16.5489607"></ellipse>
                    <path d="M179.434473,86.1600205 L173.565314,84.7859438 C168.814584,88.7478672 166.056988,92.7693563 165.292524,96.8504113 C164.52806,100.931466 165.058851,105.632496 166.884895,110.953501 L172.23078,111.678005 C170.647922,106.086031 170.647922,101.1435 172.23078,96.8504113 C173.813638,92.5573226 176.214868,88.993859 179.434473,86.1600205 Z" id="Path-19" fill="#4E4E4E" transform="translate(172.194302, 98.231974) rotate(-330.000000) translate(-172.194302, -98.231974) "></path>
                    <path d="M174.671018,114.329193 C177.517117,114.291611 179.905577,108.389991 180.005793,101.147555 C180.10601,93.9051194 177.416792,87.5515596 174.570693,87.5891408 C171.724595,87.626722 169.799375,94.0412128 169.699159,101.283649 C169.598943,108.526085 171.82492,114.366774 174.671018,114.329193 Z" id="Oval" fill="#D8D8D8" transform="translate(174.852206, 100.959174) rotate(-675.000000) translate(-174.852206, -100.959174) "></path>
                    <path d="M145.158774,41.8322146 L137.612713,40.1410433 C131.504632,45.0172566 127.95915,49.9667817 126.976268,54.9896186 C125.993386,60.0124555 126.675831,65.7983386 129.023602,72.3472681 L135.896883,73.2389647 C133.86178,66.3565354 133.86178,60.2734201 135.896883,54.9896186 C137.931986,49.7058171 141.019283,45.3200158 145.158774,41.8322146 Z" id="Path-19" fill="#4E4E4E" transform="translate(135.849983, 56.690004) rotate(-357.000000) translate(-135.849983, -56.690004) "></path>
                    <path d="M139.793936,75.3591054 C143.487822,75.2877012 146.636668,67.7792342 146.827079,58.5884751 C147.01749,49.397716 143.580458,41.3580968 139.886572,41.429501 C136.192685,41.5009052 133.640745,49.6562935 133.450334,58.8470526 C133.259923,68.0378118 136.10005,75.4305096 139.793936,75.3591054 Z" id="Oval" fill="#D8D8D8" transform="translate(140.137965, 58.394324) rotate(-702.000000) translate(-140.137965, -58.394324) "></path>
                    <path d="M185.474581,100.310543 C190.678069,102.035997 193.279813,104.746201 193.279813,108.441155 C193.279813,112.13611 190.678069,115.585912 185.474581,118.790562 L185.474581,100.310543 Z" id="Path-20" fill="#4E4E4E"></path>
                    <ellipse id="Oval" fill="#D8D8D8" cx="185.474581" cy="109.619334" rx="2.06862009" ry="9.30879038"></ellipse>
                    <path d="M206.160781,191.329827 C208.918941,192.488692 210.298022,194.308944 210.298022,196.790584 C210.298022,199.272224 208.918941,201.589212 206.160781,203.741548 L206.160781,191.329827 Z" id="Path-20" fill="#4E4E4E" transform="translate(208.229401, 197.535687) rotate(55.000000) translate(-208.229401, -197.535687) "></path>
                    <ellipse id="Oval" fill="#D8D8D8" transform="translate(207.195091, 195.467067) rotate(55.000000) translate(-207.195091, -195.467067) " cx="207.195091" cy="195.467067" rx="1.03431004" ry="6.20586026"></ellipse>
                </g>
            </g>
            <path d="M33.3333333,40.894812 L53.1693059,40.894812 L53.1693059,45.5973346 L38.6624006,45.5973346 L38.6624006,52.7748691 L52.4080106,52.7748691 L52.4080106,57.4773917 L38.6624006,57.4773917 L38.6624006,65.3974298 L53.9306012,65.3974298 L53.9306012,70.0999524 L33.3333333,70.0999524 L33.3333333,40.894812 Z M58.7229352,50.2998572 L63.5444722,50.2998572 L63.5444722,53.4761225 L63.6290606,53.4761225 C64.1083971,52.4861128 64.8414889,51.6267422 65.8283582,50.8979851 C66.8152274,50.1692279 68.1545299,49.8048548 69.8463057,49.8048548 C71.1997264,49.8048548 72.3487069,50.0248537 73.2932818,50.464858 C74.2378566,50.9048623 75.0061933,51.4823593 75.5983148,52.1973663 C76.1904364,52.9123733 76.613374,53.7373691 76.8671404,54.6723782 C77.1209067,55.6073874 77.247788,56.5836323 77.247788,57.6011423 L77.247788,70.0999524 L72.1724859,70.0999524 L72.1724859,60.0761542 C72.1724859,59.5261488 72.14429,58.914277 72.0878975,58.2405204 C72.031505,57.5667638 71.8834768,56.9342671 71.6438086,56.3430113 C71.4041403,55.7517555 71.0305454,55.256758 70.5230127,54.8580041 C70.0154799,54.4592502 69.3246818,54.2598762 68.4505976,54.2598762 C67.6047097,54.2598762 66.8927647,54.3973755 66.3147413,54.6723782 C65.7367179,54.9473809 65.2573886,55.318629 64.876739,55.7861336 C64.4960895,56.2536382 64.22118,56.7898854 64.0520024,57.3948913 C63.8828248,57.9998973 63.7982373,58.632394 63.7982373,59.2924004 L63.7982373,70.0999524 L58.7229352,70.0999524 L58.7229352,50.2998572 Z M87.0731299,61.9324131 C87.2423075,63.4174277 87.8344202,64.5724217 88.8494857,65.3974298 C89.8645512,66.2224379 91.0910703,66.6349357 92.5290797,66.6349357 C93.7979116,66.6349357 94.8623046,66.3805621 95.7222907,65.8718071 C96.5822767,65.3630521 97.3365155,64.7236804 97.9850296,63.9536729 L101.622329,66.6349357 C100.438086,68.0649498 99.1128818,69.0824445 97.6466761,69.6874504 C96.1804704,70.2924564 94.643797,70.5949548 93.03661,70.5949548 C91.5140117,70.5949548 90.0760238,70.3474561 88.7226031,69.8524512 C87.3691825,69.3574464 86.199055,68.6562 85.2121858,67.7486911 C84.2253166,66.8411822 83.442882,65.7480629 82.8648586,64.4693003 C82.2868351,63.1905378 81.9978278,61.7674202 81.9978278,60.1999048 C81.9978278,58.6323894 82.2868351,57.2092718 82.8648586,55.9305093 C83.442882,54.6517467 84.2253166,53.5586274 85.2121858,52.6511185 C86.199055,51.7436096 87.3691825,51.0423633 88.7226031,50.5473584 C90.0760238,50.0523535 91.5140117,49.8048548 93.03661,49.8048548 C94.4464232,49.8048548 95.7363829,50.0454786 96.9065279,50.5267333 C98.0766728,51.007988 99.0776252,51.7023594 99.909415,52.6098683 C100.741205,53.5173772 101.389709,54.6379964 101.854947,55.9717595 C102.320186,57.3055226 102.552801,58.8386396 102.552801,60.5711566 L102.552801,61.9324131 L87.0731299,61.9324131 Z M97.4774993,58.2198953 C97.4493031,56.762381 96.9840717,55.614262 96.0817913,54.7755037 C95.1795108,53.9367455 93.9247959,53.5173727 92.3176088,53.5173727 C90.7950106,53.5173727 89.5896384,53.9436205 88.701456,54.7961288 C87.8132737,55.6486372 87.2705038,56.7898813 87.0731299,58.2198953 L97.4774993,58.2198953 Z M107.302841,50.2998572 L112.378143,50.2998572 L112.378143,53.4348723 L112.462732,53.4348723 C113.026657,52.279861 113.830239,51.3861156 114.8735,50.7536094 C115.916762,50.1211032 117.115085,49.8048548 118.468506,49.8048548 C118.778665,49.8048548 119.08177,49.8323547 119.377831,49.8873552 C119.673892,49.9423558 119.976997,50.0111054 120.287156,50.0936062 L120.287156,54.8786292 C119.864212,54.7686281 119.448323,54.6792536 119.039477,54.6105029 C118.630632,54.5417523 118.228841,54.5073774 117.834093,54.5073774 C116.64985,54.5073774 115.69824,54.7205013 114.979236,55.1467555 C114.260231,55.5730097 113.710412,56.0611322 113.329763,56.6111376 C112.949113,57.1611429 112.69535,57.7111401 112.568467,58.2611455 C112.441584,58.8111509 112.378143,59.2236487 112.378143,59.4986514 L112.378143,70.0999524 L107.302841,70.0999524 L107.302841,50.2998572 Z M143.900402,50.2998572 L143.900402,68.3261939 C143.900402,70.1137114 143.674835,71.729328 143.223695,73.1730922 C142.772555,74.6168563 142.074708,75.8406 141.130133,76.8443598 C140.185558,77.8481197 138.994284,78.6249906 137.556274,79.174996 C136.118265,79.7250014 134.412416,80 132.438678,80 C130.549528,80 128.759092,79.7662512 127.067317,79.2987466 C125.375541,78.831242 123.810671,77.9787465 122.372662,76.7412343 L125.417843,72.6987149 C126.432909,73.6062238 127.490253,74.3074702 128.589907,74.802475 C129.689561,75.2974799 130.958374,75.5449786 132.396384,75.5449786 C133.608823,75.5449786 134.630922,75.3799794 135.462712,75.0499762 C136.294502,74.719973 136.957104,74.2662253 137.450539,73.6887197 C137.943973,73.111214 138.296421,72.4168426 138.507893,71.6055846 C138.719365,70.7943267 138.8251,69.8937064 138.8251,68.9036967 L138.8251,67.4599397 L138.740511,67.4599397 C138.007409,68.4224492 137.034652,69.1443204 135.822213,69.6255751 C134.609773,70.1068298 133.369156,70.3474536 132.100324,70.3474536 C130.577726,70.3474536 129.19613,70.07933 127.955494,69.5430747 C126.714859,69.0068195 125.650466,68.2849482 124.762283,67.3774393 C123.874101,66.4699304 123.190352,65.397436 122.711016,64.1599238 C122.231679,62.9224117 121.992014,61.6024186 121.992014,60.1999048 C121.992014,58.7423905 122.217581,57.3811476 122.668721,56.1161352 C123.119862,54.8511228 123.782464,53.7511285 124.656548,52.8161193 C125.530632,51.8811101 126.580927,51.145489 127.807465,50.6092337 C129.034002,50.0729784 130.436745,49.8048548 132.015736,49.8048548 C133.453746,49.8048548 134.793048,50.0798534 136.033684,50.6298588 C137.274319,51.1798642 138.261174,52.0598596 138.994277,53.2698715 L139.078865,53.2698715 L139.078865,50.2998572 L143.900402,50.2998572 Z M133.073091,54.2598762 C132.17081,54.2598762 131.353131,54.4042505 130.620028,54.6930033 C129.886925,54.9817562 129.259568,55.3805041 128.737937,55.8892591 C128.216306,56.3980141 127.807466,57.0167609 127.511405,57.745518 C127.215345,58.4742752 127.067317,59.278646 127.067317,60.1586546 C127.067317,60.9561624 127.215345,61.6986586 127.511405,62.3861653 C127.807466,63.0736721 128.223355,63.6786689 128.759084,64.201174 C129.294813,64.7236792 129.929219,65.136177 130.662322,65.43868 C131.395425,65.741183 132.184909,65.8924322 133.030797,65.8924322 C133.961273,65.8924322 134.8001,65.741183 135.547301,65.43868 C136.294502,65.136177 136.928908,64.7305541 137.450539,64.2217991 C137.97217,63.7130442 138.37396,63.1011723 138.655923,62.3861653 C138.937886,61.6711583 139.078865,60.9011623 139.078865,60.0761542 C139.078865,58.3436372 138.543144,56.9411445 137.471686,55.868634 C136.400228,54.7961235 134.934044,54.2598762 133.073091,54.2598762 Z M146.91638,50.2998572 L152.499213,50.2998572 L158.166633,64.0361733 L158.251222,64.0361733 L163.326524,50.2998572 L168.613297,50.2998572 L159.012517,74.3487228 C158.645966,75.283732 158.244175,76.1018528 157.807133,76.8031096 C157.370091,77.5043665 156.855517,78.0956134 156.263395,78.5768682 C155.671273,79.0581229 154.973426,79.415621 154.169833,79.6493733 C153.366239,79.8831256 152.400532,80 151.272681,80 C149.947457,80 148.650448,79.8350009 147.381616,79.5049976 L148.016029,75.0499762 C148.410777,75.1874776 148.826665,75.3043519 149.263707,75.4006029 C149.70075,75.4968538 150.144834,75.5449786 150.595974,75.5449786 C151.216292,75.5449786 151.737915,75.4899789 152.160859,75.3799778 C152.583803,75.2699767 152.9433,75.0981026 153.239361,74.8643503 C153.535422,74.630598 153.782135,74.3280996 153.979509,73.9568459 C154.176883,73.5855923 154.388352,73.1387196 154.613922,72.6162145 L155.586688,70.2649532 L146.91638,50.2998572 Z M190.759338,45.5973346 L181.581499,45.5973346 L181.581499,40.894812 L205.266243,40.894812 L205.266243,45.5973346 L196.088405,45.5973346 L196.088405,70.0999524 L190.759338,70.0999524 L190.759338,45.5973346 Z M204.560333,50.2998572 L209.635635,50.2998572 L209.635635,53.4348723 L209.720223,53.4348723 C210.284149,52.279861 211.08773,51.3861156 212.130992,50.7536094 C213.174254,50.1211032 214.372577,49.8048548 215.725998,49.8048548 C216.036156,49.8048548 216.339262,49.8323547 216.635323,49.8873552 C216.931383,49.9423558 217.234489,50.0111054 217.544647,50.0936062 L217.544647,54.8786292 C217.121704,54.7686281 216.705815,54.6792536 216.296969,54.6105029 C215.888123,54.5417523 215.486332,54.5073774 215.091585,54.5073774 C213.907342,54.5073774 212.955732,54.7205013 212.236727,55.1467555 C211.517723,55.5730097 210.967904,56.0611322 210.587254,56.6111376 C210.206605,57.1611429 209.952842,57.7111401 209.825959,58.2611455 C209.699076,58.8111509 209.635635,59.2236487 209.635635,59.4986514 L209.635635,70.0999524 L204.560333,70.0999524 L204.560333,50.2998572 Z M233.714117,67.3774393 L233.587235,67.3774393 C232.854132,68.5049504 231.923669,69.3230711 230.795818,69.8318261 C229.667968,70.3405811 228.427351,70.5949548 227.07393,70.5949548 C226.143453,70.5949548 225.234137,70.4712054 224.345955,70.223703 C223.457773,69.9762006 222.668289,69.6049525 221.977481,69.1099476 C221.286672,68.6149428 220.729805,67.996196 220.306861,67.2536887 C219.883917,66.5111814 219.672448,65.6449359 219.672448,64.6549262 C219.672448,63.5824157 219.869819,62.6680455 220.264566,61.911788 C220.659314,61.1555306 221.187986,60.5230339 221.850598,60.0142789 C222.51321,59.5055239 223.281547,59.099901 224.155631,58.7973981 C225.029716,58.4948951 225.939031,58.2680213 226.883606,58.1167698 C227.828181,57.9655183 228.779791,57.8692688 229.738464,57.8280184 C230.697137,57.786768 231.599404,57.7661431 232.445292,57.7661431 L233.714117,57.7661431 L233.714117,57.2298905 C233.714117,55.9923784 233.277082,55.0642582 232.402997,54.4455021 C231.528913,53.8267461 230.415177,53.5173727 229.061757,53.5173727 C227.990299,53.5173727 226.989346,53.7029967 226.05887,54.0742504 C225.128393,54.445504 224.324811,54.9473764 223.648101,55.5798826 L220.983568,52.9811201 C222.111418,51.853609 223.429574,51.0423633 224.938074,50.5473584 C226.446574,50.0523535 228.004394,49.8048548 229.611581,49.8048548 C231.049591,49.8048548 232.262012,49.962979 233.248881,50.2792321 C234.23575,50.5954852 235.05343,51.0011081 235.701944,51.496113 C236.350458,51.9911178 236.850934,52.5617399 237.203387,53.2079962 C237.555841,53.8542525 237.809603,54.5073741 237.964683,55.1673806 C238.119762,55.8273871 238.211399,56.4667588 238.239595,57.0855148 C238.267791,57.7042709 238.281889,58.2473931 238.281889,58.7148977 L238.281889,70.0999524 L233.714117,70.0999524 L233.714117,67.3774393 Z M233.418058,61.2311598 L232.360703,61.2311598 C231.655797,61.2311598 230.866313,61.2586596 229.992229,61.3136602 C229.118145,61.3686607 228.293416,61.499285 227.518019,61.705537 C226.742622,61.9117891 226.087068,62.2142875 225.551339,62.6130414 C225.01561,63.0117953 224.74775,63.5686674 224.74775,64.2836744 C224.74775,64.751179 224.853484,65.143052 225.064956,65.4593051 C225.276428,65.7755582 225.551338,66.0436818 225.889693,66.263684 C226.228048,66.4836861 226.608692,66.6418103 227.031636,66.7380612 C227.45458,66.8343122 227.877517,66.8824369 228.300461,66.8824369 C230.04863,66.8824369 231.33859,66.476814 232.170379,65.6655561 C233.002169,64.8542981 233.418058,63.7474289 233.418058,62.3449151 L233.418058,61.2311598 Z M243.75093,50.2998572 L248.572467,50.2998572 L248.572467,53.4761225 L248.657055,53.4761225 C249.136392,52.4861128 249.869484,51.6267422 250.856353,50.8979851 C251.843222,50.1692279 253.182525,49.8048548 254.8743,49.8048548 C256.227721,49.8048548 257.376702,50.0248537 258.321276,50.464858 C259.265851,50.9048623 260.034188,51.4823593 260.62631,52.1973663 C261.218431,52.9123733 261.641369,53.7373691 261.895135,54.6723782 C262.148901,55.6073874 262.275783,56.5836323 262.275783,57.6011423 L262.275783,70.0999524 L257.200481,70.0999524 L257.200481,60.0761542 C257.200481,59.5261488 257.172285,58.914277 257.115892,58.2405204 C257.0595,57.5667638 256.911472,56.9342671 256.671803,56.3430113 C256.432135,55.7517555 256.05854,55.256758 255.551007,54.8580041 C255.043475,54.4592502 254.352677,54.2598762 253.478592,54.2598762 C252.632704,54.2598762 251.920759,54.3973755 251.342736,54.6723782 C250.764713,54.9473809 250.285383,55.318629 249.904734,55.7861336 C249.524084,56.2536382 249.249175,56.7898854 249.079997,57.3948913 C248.91082,57.9998973 248.826232,58.632394 248.826232,59.2924004 L248.826232,70.0999524 L243.75093,70.0999524 L243.75093,50.2998572 Z M278.868194,55.7861336 C277.881325,54.4386204 276.55612,53.7648739 274.892541,53.7648739 C274.21583,53.7648739 273.553228,53.929873 272.904714,54.2598762 C272.2562,54.5898795 271.931948,55.1261267 271.931948,55.868634 C271.931948,56.4736399 272.199808,56.9136376 272.735537,57.1886403 C273.271266,57.463643 273.947967,57.6973918 274.765658,57.8898937 C275.58335,58.0823956 276.46447,58.2817696 277.409045,58.4880216 C278.35362,58.6942736 279.23474,59.010522 280.052431,59.4367761 C280.870123,59.8630303 281.546823,60.4474023 282.082552,61.1899096 C282.618281,61.9324168 282.886142,62.9499116 282.886142,64.2424242 C282.886142,65.4249358 282.62533,66.4218057 282.103699,67.2330636 C281.582068,68.0443216 280.905368,68.6974432 280.073578,69.192448 C279.241789,69.6874529 278.304277,70.044951 277.261015,70.2649532 C276.217753,70.4849554 275.174507,70.5949548 274.131246,70.5949548 C272.552255,70.5949548 271.100169,70.3749559 269.774944,69.9349516 C268.44972,69.4949473 267.265495,68.6974514 266.222233,67.5424401 L269.605768,64.4486752 C270.254282,65.1636822 270.952129,65.7480542 271.69933,66.2018087 C272.446531,66.6555631 273.355847,66.8824369 274.427305,66.8824369 C274.793856,66.8824369 275.1745,66.8411871 275.569248,66.7586863 C275.963995,66.6761855 276.330541,66.5386862 276.668897,66.3461844 C277.007252,66.1536825 277.282161,65.9130587 277.493633,65.6243059 C277.705105,65.3355531 277.81084,64.9986798 277.81084,64.613676 C277.81084,63.9261693 277.542979,63.4174219 277.00725,63.0874187 C276.471521,62.7574155 275.794821,62.4892918 274.977129,62.2830398 C274.159438,62.0767878 273.278318,61.8842888 272.333743,61.705537 C271.389168,61.5267853 270.508048,61.2380368 269.690356,60.8392829 C268.872664,60.440529 268.195964,59.8836569 267.660235,59.1686498 C267.124506,58.4536428 266.856646,57.463648 266.856646,56.1986356 C266.856646,55.0986248 267.089261,54.1430047 267.5545,53.3317468 C268.019738,52.5204888 268.632998,51.8536173 269.394297,51.3311122 C270.155596,50.808607 271.029667,50.423609 272.016536,50.1761066 C273.003406,49.9286042 274.004358,49.8048548 275.019423,49.8048548 C276.372844,49.8048548 277.712147,50.0317287 279.037371,50.4854831 C280.362595,50.9392376 281.434037,51.7161085 282.251729,52.8161193 L278.868194,55.7861336 Z M286.91718,50.2998572 L291.992482,50.2998572 L291.992482,70.0999524 L286.91718,70.0999524 L286.91718,50.2998572 Z M286.198179,43.5760749 C286.198179,42.7785671 286.501284,42.0841957 287.107504,41.4929399 C287.713724,40.9016841 288.482061,40.6060606 289.412537,40.6060606 C290.343014,40.6060606 291.125449,40.8879341 291.759864,41.4516897 C292.39428,42.0154452 292.711484,42.7235665 292.711484,43.5760749 C292.711484,44.4285832 292.39428,45.1367046 291.759864,45.7004601 C291.125449,46.2642156 290.343014,46.5460892 289.412537,46.5460892 C288.482061,46.5460892 287.713724,46.2504657 287.107504,45.6592099 C286.501284,45.0679541 286.198179,44.3735827 286.198179,43.5760749 Z M295.473697,54.5073774 L295.473697,50.2998572 L299.660821,50.2998572 L299.660821,44.5660796 L304.736123,44.5660796 L304.736123,50.2998572 L310.318955,50.2998572 L310.318955,54.5073774 L304.736123,54.5073774 L304.736123,63.1699191 C304.736123,64.1599288 304.926445,64.9436747 305.307095,65.5211804 C305.687744,66.0986861 306.441983,66.3874346 307.569833,66.3874346 C308.020974,66.3874346 308.514401,66.3393098 309.05013,66.2430589 C309.585859,66.1468079 310.008797,65.9886837 310.318955,65.7686816 L310.318955,69.9349516 C309.783226,70.182454 309.127673,70.3543281 308.352276,70.4505791 C307.576879,70.54683 306.893129,70.5949548 306.301008,70.5949548 C304.947587,70.5949548 303.840901,70.4505805 302.980914,70.1618277 C302.120928,69.8730749 301.444228,69.4330772 300.950794,68.8418214 C300.457359,68.2505656 300.119009,67.5149444 299.935733,66.6349357 C299.752457,65.7549271 299.660821,64.7374324 299.660821,63.5824211 L299.660821,54.5073774 L295.473697,54.5073774 Z M314.434582,50.2998572 L319.509885,50.2998572 L319.509885,70.0999524 L314.434582,70.0999524 L314.434582,50.2998572 Z M313.715581,43.5760749 C313.715581,42.7785671 314.018687,42.0841957 314.624906,41.4929399 C315.231126,40.9016841 315.999463,40.6060606 316.929939,40.6060606 C317.860416,40.6060606 318.642851,40.8879341 319.277267,41.4516897 C319.911683,42.0154452 320.228886,42.7235665 320.228886,43.5760749 C320.228886,44.4285832 319.911683,45.1367046 319.277267,45.7004601 C318.642851,46.2642156 317.860416,46.5460892 316.929939,46.5460892 C315.999463,46.5460892 315.231126,46.2504657 314.624906,45.6592099 C314.018687,45.0679541 313.715581,44.3735827 313.715581,43.5760749 Z M324.344513,60.1999048 C324.344513,58.6323894 324.63352,57.2092718 325.211544,55.9305093 C325.789567,54.6517467 326.572002,53.5586274 327.558871,52.6511185 C328.54574,51.7436096 329.715867,51.0423633 331.069288,50.5473584 C332.422709,50.0523535 333.860697,49.8048548 335.383295,49.8048548 C336.905893,49.8048548 338.343881,50.0523535 339.697302,50.5473584 C341.050722,51.0423633 342.22085,51.7436096 343.207719,52.6511185 C344.194588,53.5586274 344.977023,54.6517467 345.555046,55.9305093 C346.13307,57.2092718 346.422077,58.6323894 346.422077,60.1999048 C346.422077,61.7674202 346.13307,63.1905378 345.555046,64.4693003 C344.977023,65.7480629 344.194588,66.8411822 343.207719,67.7486911 C342.22085,68.6562 341.050722,69.3574464 339.697302,69.8524512 C338.343881,70.3474561 336.905893,70.5949548 335.383295,70.5949548 C333.860697,70.5949548 332.422709,70.3474561 331.069288,69.8524512 C329.715867,69.3574464 328.54574,68.6562 327.558871,67.7486911 C326.572002,66.8411822 325.789567,65.7480629 325.211544,64.4693003 C324.63352,63.1905378 324.344513,61.7674202 324.344513,60.1999048 Z M329.419815,60.1999048 C329.419815,60.9699124 329.553745,61.7124085 329.82161,62.4274155 C330.089474,63.1424225 330.484216,63.7749192 331.005847,64.3249246 C331.527478,64.87493 332.154835,65.3149277 332.887938,65.644931 C333.621041,65.9749342 334.452818,66.1399334 335.383295,66.1399334 C336.313772,66.1399334 337.145549,65.9749342 337.878652,65.644931 C338.611755,65.3149277 339.239112,64.87493 339.760743,64.3249246 C340.282374,63.7749192 340.677116,63.1424225 340.94498,62.4274155 C341.212845,61.7124085 341.346775,60.9699124 341.346775,60.1999048 C341.346775,59.4298973 341.212845,58.6874011 340.94498,57.9723941 C340.677116,57.2573871 340.282374,56.6248904 339.760743,56.074885 C339.239112,55.5248796 338.611755,55.0848819 337.878652,54.7548786 C337.145549,54.4248754 336.313772,54.2598762 335.383295,54.2598762 C334.452818,54.2598762 333.621041,54.4248754 332.887938,54.7548786 C332.154835,55.0848819 331.527478,55.5248796 331.005847,56.074885 C330.484216,56.6248904 330.089474,57.2573871 329.82161,57.9723941 C329.553745,58.6874011 329.419815,59.4298973 329.419815,60.1999048 Z M351.172117,50.2998572 L355.993654,50.2998572 L355.993654,53.4761225 L356.078242,53.4761225 C356.557579,52.4861128 357.290671,51.6267422 358.27754,50.8979851 C359.264409,50.1692279 360.603712,49.8048548 362.295487,49.8048548 C363.648908,49.8048548 364.797889,50.0248537 365.742463,50.464858 C366.687038,50.9048623 367.455375,51.4823593 368.047496,52.1973663 C368.639618,52.9123733 369.062556,53.7373691 369.316322,54.6723782 C369.570088,55.6073874 369.69697,56.5836323 369.69697,57.6011423 L369.69697,70.0999524 L364.621668,70.0999524 L364.621668,60.0761542 C364.621668,59.5261488 364.593472,58.914277 364.537079,58.2405204 C364.480687,57.5667638 364.332658,56.9342671 364.09299,56.3430113 C363.853322,55.7517555 363.479727,55.256758 362.972194,54.8580041 C362.464662,54.4592502 361.773863,54.2598762 360.899779,54.2598762 C360.053891,54.2598762 359.341946,54.3973755 358.763923,54.6723782 C358.1859,54.9473809 357.70657,55.318629 357.325921,55.7861336 C356.945271,56.2536382 356.670362,56.7898854 356.501184,57.3948913 C356.332007,57.9998973 356.247419,58.632394 356.247419,59.2924004 L356.247419,70.0999524 L351.172117,70.0999524 L351.172117,50.2998572 Z" id="Energy-Transition" fill="#FFFFFF"></path>
        </g>
    </g>
</svg>