<?xml version="1.0" encoding="UTF-8"?>
<svg width="400px" height="400px" viewBox="0 0 400 400" version="1.1" xmlns="http://www.w3.org/2000/svg" xmlns:xlink="http://www.w3.org/1999/xlink">
    <!-- Generator: Sketch 52.3 (67297) - http://www.bohemiancoding.com/sketch -->
    <title>Group 7 Copy</title>
    <desc>Created with Sketch.</desc>
    <defs>
        <path d="M143.294672,260.942399 L117.3566,260.942399 C55.2275491,254.783321 5.92257382,204.843816 0.515151515,142.298885 L0.515151515,119.407152 C6.29385835,52.5677674 62.2052613,0.124330078 130.325636,0.124330078 C202.290024,0.124330078 260.628667,58.6534984 260.628667,130.853018 C260.628667,198.661473 209.170371,254.411902 143.294672,260.942399 Z" id="path-1"></path>
        <path d="M117.114509,79.4176888 C123.077071,77.888528 127.386879,77.1239691 130.043822,77.1239691 C133.133245,77.1239691 137.443008,77.888528 142.973156,79.4176888 C167.043646,85.1488508 184.993526,106.424972 184.993526,131.791491 C184.993526,161.536537 160.34381,185.734795 130.043822,185.734795 C99.7438336,185.734795 75.094139,161.536537 75.094139,131.791491 C75.094139,106.424972 93.0440196,85.1488508 117.114509,79.4176888 Z" id="path-3"></path>
        <path d="M129.011939,110.604298 L135.233561,110.604298 L135.233561,117.661686 C138.845624,118.999934 141.455182,122.555482 141.455182,126.764342 L135.233561,126.764342 C135.233561,124.979504 133.839161,123.532342 132.122739,123.532342 C130.406339,123.532342 129.011939,124.979504 129.011939,126.764342 C129.011939,128.547636 130.406339,129.996364 132.122739,129.996364 C137.267442,129.996364 141.455182,134.345697 141.455182,139.692386 C141.455182,143.89968 138.845624,147.455207 135.233561,148.793477 L135.233561,155.852452 L129.011939,155.852452 L129.011939,148.793477 C125.399876,147.455207 122.790318,143.89968 122.790318,139.692386 L129.011939,139.692386 C129.011939,141.47568 130.406339,142.924408 132.122739,142.924408 C133.839161,142.924408 135.233561,141.47568 135.233561,139.692386 C135.233561,137.907548 133.839161,136.460386 132.122739,136.460386 C126.978058,136.460386 122.790318,132.109488 122.790318,126.764342 C122.790318,122.555482 125.399876,118.999934 129.011939,117.661686 L129.011939,110.604298 Z" id="path-5"></path>
        <path d="M96.0993583,132.266975 C96.0993583,112.585961 111.641583,96.5743251 130.742225,96.5743251 C149.842845,96.5743251 165.38507,112.585961 165.38507,132.266975 C165.38507,151.946402 149.842845,167.959603 130.742225,167.959603 C111.641583,167.959603 96.0993583,151.946402 96.0993583,132.266975 Z M159.086374,132.266975 C159.086374,116.161851 146.372086,103.06389 130.742225,103.06389 C115.112342,103.06389 102.398053,116.161851 102.398053,132.266975 C102.398053,148.370468 115.112342,161.470039 130.742225,161.470039 C146.372086,161.470039 159.086374,148.370468 159.086374,132.266975 Z" id="path-7"></path>
        <path d="M174.525451,198.837231 L163.616153,192.43852 C159.080072,194.928031 154.265586,196.894262 149.252904,198.292264 L146.133933,210.411618 L115.350152,210.411618 L112.231158,198.295371 C107.220052,196.894262 102.404012,194.931138 97.8679091,192.443138 L86.9554596,198.840338 L65.1888418,177.413215 L71.6894108,166.673327 C69.1602761,162.209859 67.1643165,157.469247 65.7424798,152.535131 L53.4317643,149.466579 L53.4317643,119.163621 L65.7424798,116.098176 C67.167468,111.164061 69.1602761,106.423449 71.6894108,101.959959 L65.1919495,91.2169848 L86.9554596,69.7960551 L97.8679091,76.1916589 C101.859806,73.9994261 106.086054,72.2112466 110.453857,70.8581084 L112.38532,76.9084844 C107.879113,78.3003361 103.541162,80.2154674 99.4910926,82.5903916 L97.8427407,83.5564812 L87.969963,77.7677557 L73.2905556,92.2155946 L79.1730337,101.933654 L78.1868502,103.560808 C75.1842879,108.513503 72.9303855,113.874934 71.4865101,119.49029 L71.016234,121.323355 L59.8741616,124.100843 L59.8741616,144.529357 L71.0193636,147.306845 L71.4896616,149.13991 C72.9335152,154.755245 75.1874175,160.116676 78.1900017,165.069371 L79.1761852,166.696546 L73.2968586,176.41152 L87.9731364,190.860891 L97.8458923,185.073719 L99.4973956,186.044448 C104.528943,188.998413 109.977278,191.218527 115.682002,192.63977 L117.542687,193.102691 L120.364387,204.070178 L141.119697,204.070178 L143.941375,193.098052 L145.802061,192.635152 C151.506806,191.215441 156.955141,188.995306 161.986667,186.041341 L163.63817,185.070612 L173.510948,190.857805 L188.187204,176.408412 L182.307899,166.693439 L183.294061,165.066285 C186.296623,160.113568 188.550525,154.752137 189.994423,149.136824 L190.464677,147.303759 L201.606771,144.526271 L201.606771,124.097736 L190.464677,121.317162 L189.994423,119.484097 C188.550525,113.868741 186.296623,108.507309 183.294061,103.554614 L182.307899,101.927461 L188.190355,92.2094013 L173.510948,77.7600087 L163.63817,83.5502879 L161.986667,82.5795588 C157.994791,80.2371547 153.71035,78.3406033 149.259185,76.951859 L151.207938,70.9092084 C155.514396,72.2530459 159.67619,74.0257314 163.613002,76.1854871 L174.525451,69.7898618 L196.288961,91.2107916 L189.791522,101.953766 C192.320657,106.417255 194.316616,111.157868 195.738453,116.091983 L208.049146,119.160492 L208.049146,149.463494 L195.738453,152.532024 C194.313465,157.466139 192.320657,162.206752 189.791522,166.670241 L196.292091,177.410108 L174.525451,198.837231 Z" id="path-9"></path>
        <path d="M149.332674,76.816849 L147.526587,76.1830198 L144.591217,64.2949862 L124.044337,62.4881102 L120.807138,74.9791944 L118.920237,75.2871613 C114.361851,76.0345993 109.869858,77.3189409 105.580251,79.1072605 L103.145255,73.5365497 C107.295553,71.8065442 111.613982,70.1006489 116.01196,69.2461035 L119.64817,55.6115482 L150.109733,58.2892121 C150.947478,63.8027548 151.36635,68.047223 151.36635,71.0226166 L149.332674,76.816849 Z" id="path-11"></path>
        <path d="M91.4648258,49.5376544 C58.7555152,64.8970393 37.9110246,97.4974055 37.9110246,134.204143 L31.4953968,134.204143 C31.4953968,95.5733475 53.077608,61.1749052 87.1088958,44.4456557 L75.3881742,40.5187105 L77.4181203,34.4050677 L99.2666174,41.7248227 L95.6061326,63.7901651 L89.2782576,62.733666 L91.4648258,49.5376544 Z" id="path-13"></path>
        <polygon id="path-15" points="31.5248409 139.294561 38.1908636 139.294561 38.1908636 145.960583 31.5248409 145.960583"></polygon>
        <polygon id="path-17" points="31.5248409 151.099071 38.1908636 151.099071 38.1908636 157.024424 31.5248409 157.024424"></polygon>
        <path d="M169.73909,217.323943 C202.448401,202.091943 223.292869,169.76203 223.292869,133.361421 L229.708475,133.361421 C229.708475,171.671704 208.126308,205.783204 174.09502,222.37366 L185.815741,226.267943 L183.785795,232.331051 L161.937298,225.071877 L165.597783,203.18966 L171.925658,204.237377 L169.73909,217.323943 Z" id="path-19"></path>
        <polygon id="path-21" points="222.994318 118.538917 229.660227 118.538917 229.660227 125.204939 222.994318 125.204939"></polygon>
        <polygon id="path-23" points="222.994318 106.722023 229.660227 106.722023 229.660227 113.388045 222.994318 113.388045"></polygon>
    </defs>
    <g id="Page-1" stroke="none" stroke-width="1" fill="none" fill-rule="evenodd">
        <g id="Group-7-Copy">
            <rect id="Rectangle-Copy-2" fill="#F0CF65" x="0" y="0" width="400" height="400" rx="6"></rect>
            <path d="M52.4805391,46.6910065 C51.3801228,45.4983511 50.3149923,44.7032595 49.2851156,44.3057077 C48.2552388,43.9081559 47.2183237,43.709383 46.1743391,43.709383 C44.62247,43.709383 43.218755,43.9862453 41.9631518,44.5399781 C40.7075487,45.0937109 39.6283105,45.8604064 38.7254048,46.8400876 C37.8224992,47.8197688 37.1241686,48.962713 36.6303921,50.2689546 C36.1366155,51.5751962 35.889731,52.9808046 35.889731,54.4858221 C35.889731,56.1044258 36.1366155,57.5952226 36.6303921,58.9582573 C37.1241686,60.321292 37.8224992,61.4997313 38.7254048,62.4936108 C39.6283105,63.4874903 40.7075487,64.2683838 41.9631518,64.836315 C43.218755,65.4042461 44.62247,65.6882074 46.1743391,65.6882074 C47.3876185,65.6882074 48.5656105,65.397147 49.7083505,64.8150176 C50.8510904,64.2328882 51.9162209,63.302915 52.903774,62.02507 L57.3054169,65.1770719 C55.9510585,67.0512446 54.3004589,68.4142589 52.3535686,69.2661555 C50.4066783,70.1180522 48.3328481,70.5439942 46.1320156,70.5439942 C43.8183199,70.5439942 41.6951127,70.1677454 39.7623303,69.4152367 C37.829548,68.662728 36.1648407,67.5978731 34.7681585,66.2206401 C33.3714763,64.8434072 32.2781305,63.1893326 31.488088,61.2583668 C30.6980456,59.327401 30.3030303,57.1834932 30.3030303,54.826579 C30.3030303,52.4128718 30.6980456,50.2192707 31.488088,48.2457101 C32.2781305,46.2721495 33.3714763,44.5896788 34.7681585,43.1982475 C36.1648407,41.8068163 37.829548,40.7348624 39.7623303,39.9823537 C41.6951127,39.2298449 43.8183199,38.8535962 46.1320156,38.8535962 C48.1635533,38.8535962 50.0469297,39.2156469 51.7822015,39.939759 C53.5174733,40.6638712 55.1328036,41.8920038 56.6282411,43.6241937 L52.4805391,46.6910065 Z M60.5351023,49.3318729 L65.6139211,49.3318729 L65.6139211,69.777291 L60.5351023,69.777291 L60.5351023,49.3318729 Z M59.815603,42.3889497 C59.815603,41.5654496 60.1189183,40.8484473 60.725558,40.2379214 C61.3321978,39.6273954 62.1010668,39.322137 63.0321882,39.322137 C63.9633097,39.322137 64.7462864,39.6131974 65.3811419,40.1953268 C66.0159975,40.7774562 66.3334205,41.5086565 66.3334205,42.3889497 C66.3334205,43.269243 66.0159975,44.0004433 65.3811419,44.5825727 C64.7462864,45.1647021 63.9633097,45.4557624 63.0321882,45.4557624 C62.1010668,45.4557624 61.3321978,45.150504 60.725558,44.5399781 C60.1189183,43.9294521 59.815603,43.2124499 59.815603,42.3889497 Z M71.4676629,49.3318729 L76.5464817,49.3318729 L76.5464817,52.5690641 L76.6311287,52.5690641 C77.1954447,51.3764088 77.999583,50.4535346 79.0435676,49.8004138 C80.0875522,49.147293 81.2867058,48.8207375 82.6410643,48.8207375 C82.9514381,48.8207375 83.2547534,48.8491336 83.5510193,48.9059267 C83.8472852,48.9627198 84.1506005,49.0337102 84.4609743,49.1188998 L84.4609743,54.0598759 C84.0377373,53.9462896 83.6215605,53.8540022 83.2124314,53.7830108 C82.8033023,53.7120194 82.4012331,53.6765243 82.0062119,53.6765243 C80.8211483,53.6765243 79.8688793,53.8965943 79.1493763,54.3367409 C78.4298734,54.7768875 77.8796735,55.2809188 77.4987602,55.8488499 C77.1178469,56.4167811 76.8639085,56.9847037 76.7369374,57.5526348 C76.6099663,58.1205659 76.5464817,58.5465078 76.5464817,58.8304734 L76.5464817,69.777291 L71.4676629,69.777291 L71.4676629,49.3318729 Z M101.064883,55.4654984 C100.472351,54.8407741 99.8516124,54.3438419 99.202649,53.9746866 C98.5536856,53.6055314 97.8906242,53.4209566 97.213445,53.4209566 C96.2823235,53.4209566 95.4499699,53.5913333 94.716359,53.932092 C93.9827482,54.2728507 93.3549561,54.7271888 92.8329637,55.2951199 C92.3109714,55.863051 91.9159561,56.516162 91.647906,57.2544724 C91.3798559,57.9927829 91.2458329,58.7594784 91.2458329,59.554582 C91.2458329,60.3496855 91.3798559,61.116381 91.647906,61.8546915 C91.9159561,62.5930019 92.3109714,63.2461129 92.8329637,63.8140441 C93.3549561,64.3819752 93.9827482,64.8363133 94.716359,65.1770719 C95.4499699,65.5178306 96.2823235,65.6882074 97.213445,65.6882074 C98.0034874,65.6882074 98.7370872,65.5249296 99.4142664,65.1983692 C100.091446,64.8718088 100.669861,64.3961737 101.14953,63.7714494 L104.535409,67.4345868 C104.027524,67.9457248 103.442055,68.3858649 102.778984,68.7550201 C102.115913,69.1241753 101.445797,69.4223347 100.768618,69.6495071 C100.091439,69.8766796 99.4424852,70.0399573 98.8217376,70.1393453 C98.20099,70.2387332 97.6648978,70.2884264 97.213445,70.2884264 C95.6897917,70.2884264 94.2508074,70.0328613 92.896449,69.5217233 C91.5420905,69.0105853 90.3711523,68.2864839 89.3835993,67.3493976 C88.3960463,66.4123112 87.6130695,65.2835651 87.0346456,63.9631252 C86.4562217,62.6426854 86.1670141,61.1731857 86.1670141,59.554582 C86.1670141,57.9359783 86.4562217,56.4664786 87.0346456,55.1460387 C87.6130695,53.8255988 88.3960463,52.6968527 89.3835993,51.7597663 C90.3711523,50.82268 91.5420905,50.0985787 92.896449,49.5874407 C94.2508074,49.0763027 95.6897917,48.8207375 97.213445,48.8207375 C98.5113718,48.8207375 99.816333,49.0692036 101.128368,49.5661434 C102.440403,50.0630831 103.590179,50.8510757 104.577732,51.9301448 L101.064883,55.4654984 Z M126.133489,69.777291 L121.308611,69.777291 L121.308611,66.4975052 L121.223964,66.4975052 C120.744295,67.5197812 120.010695,68.4071602 119.023142,69.159669 C118.035589,69.9121777 116.695359,70.2884264 115.002411,70.2884264 C113.648052,70.2884264 112.498276,70.0683564 111.553046,69.6282098 C110.607817,69.1880632 109.838948,68.5917445 109.246416,67.8392357 C108.653884,67.086727 108.230654,66.2277441 107.976712,65.2622612 C107.722769,64.2967783 107.5958,63.2887157 107.5958,62.2380431 L107.5958,49.3318729 L112.674619,49.3318729 L112.674619,59.6823658 C112.674619,60.2502969 112.702834,60.8821108 112.759266,61.5778265 C112.815698,62.2735421 112.963828,62.9266531 113.203663,63.537179 C113.443497,64.147705 113.810297,64.6588353 114.304073,65.0705854 C114.79785,65.4823354 115.49618,65.6882074 116.399086,65.6882074 C117.24556,65.6882074 117.957998,65.5462267 118.536422,65.2622612 C119.114846,64.9782956 119.594508,64.5949479 119.975421,64.1122064 C120.356334,63.629465 120.631434,63.0757404 120.800729,62.4510162 C120.970024,61.826292 121.05467,61.173181 121.05467,60.4916636 L121.05467,49.3318729 L126.133489,49.3318729 L126.133489,69.777291 Z M131.987231,37.5757576 L137.066049,37.5757576 L137.066049,69.777291 L131.987231,69.777291 L131.987231,37.5757576 Z M155.616838,66.966046 L155.489868,66.966046 C154.756257,68.1303048 153.825149,68.9750897 152.696517,69.5004259 C151.567885,70.0257622 150.326409,70.2884264 148.97205,70.2884264 C148.040929,70.2884264 147.130983,70.1606438 146.242185,69.9050748 C145.353387,69.6495058 144.563357,69.2661581 143.87207,68.7550201 C143.180783,68.2438821 142.623529,67.6049691 142.200292,66.8382621 C141.777055,66.0715551 141.565439,65.177077 141.565439,64.154801 C141.565439,63.0473353 141.762947,62.103164 142.157968,61.3222587 C142.552989,60.5413534 143.082028,59.8882425 143.745099,59.3629062 C144.40817,58.8375699 145.17704,58.418727 146.051729,58.1063649 C146.926419,57.7940027 147.836365,57.5597347 148.781594,57.4035536 C149.726824,57.2473726 150.679093,57.1479861 151.63843,57.1053913 C152.597767,57.0627964 153.500659,57.0414993 154.347133,57.0414993 L155.616838,57.0414993 L155.616838,56.4877693 C155.616838,55.2099242 155.1795,54.2515549 154.30481,53.6126323 C153.43012,52.9737098 152.315613,52.6542534 150.961254,52.6542534 C149.889054,52.6542534 148.887408,52.8459273 147.956286,53.2292808 C147.025165,53.6126343 146.221027,54.1308636 145.543847,54.7839844 L142.877468,52.1005233 C144.0061,50.9362645 145.325169,50.0985787 146.834714,49.5874407 C148.344259,49.0763027 149.903159,48.8207375 151.51146,48.8207375 C152.950465,48.8207375 154.163727,48.9840152 155.15128,49.3105756 C156.138833,49.637136 156.957079,50.0559789 157.606042,50.567117 C158.255006,51.078255 158.755829,51.6674747 159.108526,52.3347937 C159.461224,53.0021128 159.715162,53.6765209 159.870349,54.3580382 C160.025536,55.0395556 160.117236,55.6997656 160.145452,56.3386881 C160.173667,56.9776106 160.187775,57.5384342 160.187775,58.0211756 L160.187775,69.777291 L155.616838,69.777291 L155.616838,66.966046 Z M155.320574,60.6194475 L154.262486,60.6194475 C153.557091,60.6194475 152.767061,60.6478436 151.892371,60.7046367 C151.017681,60.7614298 150.192381,60.8963115 149.416447,61.1092856 C148.640512,61.3222598 147.984505,61.6346172 147.448405,62.0463673 C146.912304,62.4581173 146.644258,63.033139 146.644258,63.7714494 C146.644258,64.2541909 146.750066,64.6588357 146.961684,64.9853961 C147.173303,65.3119565 147.448403,65.5888188 147.786992,65.8159912 C148.125582,66.0431637 148.50649,66.2064414 148.929727,66.3058294 C149.352964,66.4052173 149.776194,66.4549106 150.199431,66.4549106 C151.948811,66.4549106 153.239665,66.0360676 154.072031,65.1983692 C154.904397,64.3606708 155.320574,63.2177266 155.320574,61.7695023 L155.320574,60.6194475 Z M165.660605,49.3318729 L170.739424,49.3318729 L170.739424,52.5690641 L170.824071,52.5690641 C171.388387,51.3764088 172.192525,50.4535346 173.23651,49.8004138 C174.280495,49.147293 175.479648,48.8207375 176.834007,48.8207375 C177.144381,48.8207375 177.447696,48.8491336 177.743962,48.9059267 C178.040228,48.9627198 178.343543,49.0337102 178.653917,49.1188998 L178.653917,54.0598759 C178.23068,53.9462896 177.814503,53.8540022 177.405374,53.7830108 C176.996245,53.7120194 176.594176,53.6765243 176.199154,53.6765243 C175.014091,53.6765243 174.061822,53.8965943 173.342319,54.3367409 C172.622816,54.7768875 172.072616,55.2809188 171.691703,55.8488499 C171.310789,56.4167811 171.056851,56.9847037 170.92988,57.5526348 C170.802909,58.1205659 170.739424,58.5465078 170.739424,58.8304734 L170.739424,69.777291 L165.660605,69.777291 L165.660605,49.3318729 Z M195.143955,39.6202994 L214.993672,39.6202994 L214.993672,44.4760862 L200.476714,44.4760862 L200.476714,51.8875502 L214.231849,51.8875502 L214.231849,56.743337 L200.476714,56.743337 L200.476714,64.9215042 L215.755494,64.9215042 L215.755494,69.777291 L195.143955,69.777291 L195.143955,39.6202994 Z M234.433254,55.4654984 C233.840722,54.8407741 233.219983,54.3438419 232.57102,53.9746866 C231.922057,53.6055314 231.258995,53.4209566 230.581816,53.4209566 C229.650695,53.4209566 228.818341,53.5913333 228.08473,53.932092 C227.351119,54.2728507 226.723327,54.7271888 226.201335,55.2951199 C225.679342,55.863051 225.284327,56.516162 225.016277,57.2544724 C224.748227,57.9927829 224.614204,58.7594784 224.614204,59.554582 C224.614204,60.3496855 224.748227,61.116381 225.016277,61.8546915 C225.284327,62.5930019 225.679342,63.2461129 226.201335,63.8140441 C226.723327,64.3819752 227.351119,64.8363133 228.08473,65.1770719 C228.818341,65.5178306 229.650695,65.6882074 230.581816,65.6882074 C231.371858,65.6882074 232.105458,65.5249296 232.782637,65.1983692 C233.459817,64.8718088 234.038232,64.3961737 234.517901,63.7714494 L237.90378,67.4345868 C237.395895,67.9457248 236.810426,68.3858649 236.147355,68.7550201 C235.484284,69.1241753 234.814168,69.4223347 234.136989,69.6495071 C233.45981,69.8766796 232.810856,70.0399573 232.190109,70.1393453 C231.569361,70.2387332 231.033269,70.2884264 230.581816,70.2884264 C229.058163,70.2884264 227.619178,70.0328613 226.26482,69.5217233 C224.910462,69.0105853 223.739523,68.2864839 222.75197,67.3493976 C221.764417,66.4123112 220.981441,65.2835651 220.403017,63.9631252 C219.824593,62.6426854 219.535385,61.1731857 219.535385,59.554582 C219.535385,57.9359783 219.824593,56.4664786 220.403017,55.1460387 C220.981441,53.8255988 221.764417,52.6968527 222.75197,51.7597663 C223.739523,50.82268 224.910462,50.0985787 226.26482,49.5874407 C227.619178,49.0763027 229.058163,48.8207375 230.581816,48.8207375 C231.879743,48.8207375 233.184704,49.0692036 234.496739,49.5661434 C235.808774,50.0630831 236.95855,50.8510757 237.946103,51.9301448 L234.433254,55.4654984 Z M239.948407,59.554582 C239.948407,57.9359783 240.237615,56.4664786 240.816039,55.1460387 C241.394463,53.8255988 242.17744,52.6968527 243.164993,51.7597663 C244.152546,50.82268 245.323484,50.0985787 246.677842,49.5874407 C248.032201,49.0763027 249.471185,48.8207375 250.994838,48.8207375 C252.518492,48.8207375 253.957476,49.0763027 255.311834,49.5874407 C256.666193,50.0985787 257.837131,50.82268 258.824684,51.7597663 C259.812237,52.6968527 260.595214,53.8255988 261.173638,55.1460387 C261.752062,56.4664786 262.041269,57.9359783 262.041269,59.554582 C262.041269,61.1731857 261.752062,62.6426854 261.173638,63.9631252 C260.595214,65.2835651 259.812237,66.4123112 258.824684,67.3493976 C257.837131,68.2864839 256.666193,69.0105853 255.311834,69.5217233 C253.957476,70.0328613 252.518492,70.2884264 250.994838,70.2884264 C249.471185,70.2884264 248.032201,70.0328613 246.677842,69.5217233 C245.323484,69.0105853 244.152546,68.2864839 243.164993,67.3493976 C242.17744,66.4123112 241.394463,65.2835651 240.816039,63.9631252 C240.237615,62.6426854 239.948407,61.1731857 239.948407,59.554582 Z M245.027226,59.554582 C245.027226,60.3496855 245.161249,61.116381 245.429299,61.8546915 C245.69735,62.5930019 246.092365,63.2461129 246.614357,63.8140441 C247.136349,64.3819752 247.764142,64.8363133 248.497752,65.1770719 C249.231363,65.5178306 250.063717,65.6882074 250.994838,65.6882074 C251.92596,65.6882074 252.758313,65.5178306 253.491924,65.1770719 C254.225535,64.8363133 254.853327,64.3819752 255.37532,63.8140441 C255.897312,63.2461129 256.292327,62.5930019 256.560377,61.8546915 C256.828427,61.116381 256.96245,60.3496855 256.96245,59.554582 C256.96245,58.7594784 256.828427,57.9927829 256.560377,57.2544724 C256.292327,56.516162 255.897312,55.863051 255.37532,55.2951199 C254.853327,54.7271888 254.225535,54.2728507 253.491924,53.932092 C252.758313,53.5913333 251.92596,53.4209566 250.994838,53.4209566 C250.063717,53.4209566 249.231363,53.5913333 248.497752,53.932092 C247.764142,54.2728507 247.136349,54.7271888 246.614357,55.2951199 C246.092365,55.863051 245.69735,56.516162 245.429299,57.2544724 C245.161249,57.9927829 245.027226,58.7594784 245.027226,59.554582 Z M266.7946,49.3318729 L271.619478,49.3318729 L271.619478,52.6116588 L271.704125,52.6116588 C272.183794,51.5893827 272.917394,50.7020037 273.904947,49.9494949 C274.8925,49.1969862 276.23273,48.8207375 277.925678,48.8207375 C279.280037,48.8207375 280.429813,49.0479065 281.375043,49.5022514 C282.320272,49.9565963 283.089141,50.5529151 283.681673,51.2912255 C284.274205,52.029536 284.697435,52.8814199 284.951377,53.8469028 C285.20532,54.8123857 285.332289,55.8204483 285.332289,56.8711208 L285.332289,69.777291 L280.25347,69.777291 L280.25347,59.4267981 C280.25347,58.858867 280.225255,58.2270531 280.168823,57.5313375 C280.112392,56.8356219 279.964261,56.1825109 279.724426,55.5719849 C279.484592,54.961459 279.110738,54.4503286 278.602854,54.0385786 C278.09497,53.6268285 277.403693,53.4209566 276.529003,53.4209566 C275.682529,53.4209566 274.970091,53.5629372 274.391667,53.8469028 C273.813243,54.1308683 273.333581,54.5142161 272.952668,54.9969575 C272.571755,55.479699 272.296655,56.0334235 272.12736,56.6581477 C271.958065,57.282872 271.873419,57.935983 271.873419,58.6175003 L271.873419,69.777291 L266.7946,69.777291 L266.7946,49.3318729 Z M290.08562,59.554582 C290.08562,57.9359783 290.374828,56.4664786 290.953251,55.1460387 C291.531675,53.8255988 292.314652,52.6968527 293.302205,51.7597663 C294.289758,50.82268 295.460696,50.0985787 296.815055,49.5874407 C298.169413,49.0763027 299.608398,48.8207375 301.132051,48.8207375 C302.655704,48.8207375 304.094688,49.0763027 305.449047,49.5874407 C306.803405,50.0985787 307.974343,50.82268 308.961896,51.7597663 C309.94945,52.6968527 310.732426,53.8255988 311.31085,55.1460387 C311.889274,56.4664786 312.178482,57.9359783 312.178482,59.554582 C312.178482,61.1731857 311.889274,62.6426854 311.31085,63.9631252 C310.732426,65.2835651 309.94945,66.4123112 308.961896,67.3493976 C307.974343,68.2864839 306.803405,69.0105853 305.449047,69.5217233 C304.094688,70.0328613 302.655704,70.2884264 301.132051,70.2884264 C299.608398,70.2884264 298.169413,70.0328613 296.815055,69.5217233 C295.460696,69.0105853 294.289758,68.2864839 293.302205,67.3493976 C292.314652,66.4123112 291.531675,65.2835651 290.953251,63.9631252 C290.374828,62.6426854 290.08562,61.1731857 290.08562,59.554582 Z M295.164439,59.554582 C295.164439,60.3496855 295.298462,61.116381 295.566512,61.8546915 C295.834562,62.5930019 296.229577,63.2461129 296.75157,63.8140441 C297.273562,64.3819752 297.901354,64.8363133 298.634965,65.1770719 C299.368576,65.5178306 300.200929,65.6882074 301.132051,65.6882074 C302.063172,65.6882074 302.895526,65.5178306 303.629137,65.1770719 C304.362748,64.8363133 304.99054,64.3819752 305.512532,63.8140441 C306.034524,63.2461129 306.42954,62.5930019 306.69759,61.8546915 C306.96564,61.116381 307.099663,60.3496855 307.099663,59.554582 C307.099663,58.7594784 306.96564,57.9927829 306.69759,57.2544724 C306.42954,56.516162 306.034524,55.863051 305.512532,55.2951199 C304.99054,54.7271888 304.362748,54.2728507 303.629137,53.932092 C302.895526,53.5913333 302.063172,53.4209566 301.132051,53.4209566 C300.200929,53.4209566 299.368576,53.5913333 298.634965,53.932092 C297.901354,54.2728507 297.273562,54.7271888 296.75157,55.2951199 C296.229577,55.863051 295.834562,56.516162 295.566512,57.2544724 C295.298462,57.9927829 295.164439,58.7594784 295.164439,59.554582 Z M316.720195,49.3318729 L321.545073,49.3318729 L321.545073,52.5264695 L321.62972,52.5264695 C322.081173,51.5609866 322.807719,50.7020037 323.80938,49.9494949 C324.811041,49.1969862 326.158325,48.8207375 327.851273,48.8207375 C331.039659,48.8207375 333.155812,50.0843653 334.199797,52.6116588 C334.933407,51.3054172 335.850407,50.3470478 336.950824,49.7365218 C338.05124,49.1259959 339.363255,48.8207375 340.886908,48.8207375 C342.241267,48.8207375 343.383989,49.0479065 344.315111,49.5022514 C345.246232,49.9565963 346.000994,50.5813112 346.579417,51.3764147 C347.157841,52.1715183 347.574018,53.1014916 347.82796,54.1663624 C348.081903,55.2312333 348.208872,56.3741775 348.208872,57.5952294 L348.208872,69.777291 L343.130053,69.777291 L343.130053,58.1915541 C343.130053,57.5668299 343.073622,56.9634121 342.960759,56.3812827 C342.847896,55.7991533 342.650388,55.288023 342.36823,54.8478764 C342.086072,54.4077297 341.705165,54.0598771 341.225496,53.8043081 C340.745827,53.5487391 340.125089,53.4209566 339.363262,53.4209566 C338.57322,53.4209566 337.903105,53.5700362 337.352897,53.8682001 C336.802689,54.1663639 336.351243,54.5639097 335.998545,55.0608495 C335.645847,55.5577892 335.391909,56.1257118 335.236722,56.7646343 C335.081535,57.4035568 335.003943,58.0495688 335.003943,58.7026895 L335.003943,69.777291 L329.925124,69.777291 L329.925124,57.5952294 C329.925124,56.3173844 329.657078,55.3022227 329.120978,54.549714 C328.584878,53.7972053 327.696093,53.4209566 326.454598,53.4209566 C325.608124,53.4209566 324.895686,53.5629372 324.317262,53.8469028 C323.738838,54.1308683 323.259176,54.5142161 322.878263,54.9969575 C322.49735,55.479699 322.22225,56.0334235 322.052955,56.6581477 C321.88366,57.282872 321.799014,57.935983 321.799014,58.6175003 L321.799014,69.777291 L316.720195,69.777291 L316.720195,49.3318729 Z M351.015322,49.3318729 L356.602023,49.3318729 L362.273371,63.5158817 L362.358018,63.5158817 L367.436836,49.3318729 L372.727273,49.3318729 L363.11984,74.1645369 C362.753035,75.1300198 362.350966,75.9748047 361.913621,76.6989169 C361.476276,77.4230291 360.961345,78.0335459 360.368814,78.5304856 C359.776282,79.0274253 359.077951,79.396575 358.273801,79.6379457 C357.469651,79.8793164 356.503274,80 355.374642,80 C354.048499,80 352.750592,79.8296232 351.480881,79.4888645 L352.115733,74.8886455 C352.510754,75.0306283 352.926931,75.1513118 353.364276,75.2506998 C353.801621,75.3500877 354.246013,75.3997809 354.697466,75.3997809 C355.318214,75.3997809 355.840198,75.3429887 356.263435,75.2294025 C356.686672,75.1158162 357.046418,74.9383404 357.342684,74.6969697 C357.63895,74.455599 357.885835,74.1432415 358.083345,73.759888 C358.280856,73.3765345 358.492471,72.9150974 358.718198,72.3755629 L359.691638,69.9476695 L351.015322,49.3318729 Z" id="Circular-Economy" fill="#FFFFFF"></path>
            <g id="Group" transform="translate(69.181818, 96.969697)">
                <mask id="mask-2" fill="white">
                    <use xlink:href="#path-1"></use>
                </mask>
                <use id="Clip-5" fill="#F0CF65" xlink:href="#path-1"></use>
                <mask id="mask-4" fill="white">
                    <use xlink:href="#path-3"></use>
                </mask>
                <g id="Clip-9"></g>
                <polygon id="Fill-8" fill="#FFFFFF" mask="url(#mask-4)" points="73.6923601 187.109617 186.395305 187.109617 186.395305 75.7491474 73.6923601 75.7491474"></polygon>
                <mask id="mask-6" fill="white">
                    <use xlink:href="#path-5"></use>
                </mask>
                <g id="Clip-12"></g>
                <polygon id="Fill-11" fill="#F0CF65" mask="url(#mask-6)" points="121.437791 157.257675 142.807709 157.257675 142.807709 109.199074 121.437791 109.199074"></polygon>
                <mask id="mask-8" fill="white">
                    <use xlink:href="#path-7"></use>
                </mask>
                <g id="Clip-15"></g>
                <polygon id="Fill-14" fill="#F0CF65" mask="url(#mask-8)" points="94.7354652 169.364826 166.748963 169.364826 166.748963 95.1691019 94.7354652 95.1691019"></polygon>
                <mask id="mask-10" fill="white">
                    <use xlink:href="#path-9"></use>
                </mask>
                <g id="Clip-18"></g>
                <polygon id="Fill-17" fill="#FFFFFF" mask="url(#mask-10)" points="52.0362997 211.787565 209.444611 211.787565 209.444611 68.4139141 52.0362997 68.4139141"></polygon>
                <mask id="mask-12" fill="white">
                    <use xlink:href="#path-11"></use>
                </mask>
                <g id="Clip-21"></g>
                <polygon id="Fill-20" fill="#FFFFFF" mask="url(#mask-12)" points="98.4510861 71.7432948 136.389937 39.5873278 160.176359 68.2212011 122.237508 100.377234"></polygon>
                <mask id="mask-14" fill="white">
                    <use xlink:href="#path-13"></use>
                </mask>
                <g id="Clip-24"></g>
                <polygon id="Fill-23" fill="#FFFFFF" mask="url(#mask-14)" points="30.1066411 135.601892 100.655373 135.601892 100.655373 33.0072095 30.1066411 33.0072095"></polygon>
                <mask id="mask-16" fill="white">
                    <use xlink:href="#path-15"></use>
                </mask>
                <g id="Clip-27"></g>
                <polygon id="Fill-26" fill="#FFFFFF" mask="url(#mask-16)" points="30.0757045 147.40972 39.6399977 147.40972 39.6399977 137.845427 30.0757045 137.845427"></polygon>
                <mask id="mask-18" fill="white">
                    <use xlink:href="#path-17"></use>
                </mask>
                <g id="Clip-30"></g>
                <polygon id="Fill-29" fill="#FFFFFF" mask="url(#mask-18)" points="30.0757045 158.312545 39.6399977 158.312545 39.6399977 149.810952 30.0757045 149.810952"></polygon>
                <mask id="mask-20" fill="white">
                    <use xlink:href="#path-19"></use>
                </mask>
                <g id="Clip-33"></g>
                <polygon id="Fill-32" fill="#FFFFFF" mask="url(#mask-20)" points="160.548543 233.717182 231.097275 233.717182 231.097275 131.975269 160.548543 131.975269"></polygon>
                <mask id="mask-22" fill="white">
                    <use xlink:href="#path-21"></use>
                </mask>
                <g id="Clip-36"></g>
                <polygon id="Fill-35" fill="#FFFFFF" mask="url(#mask-22)" points="221.545227 126.654076 231.10952 126.654076 231.10952 117.089783 221.545227 117.089783"></polygon>
                <mask id="mask-24" fill="white">
                    <use xlink:href="#path-23"></use>
                </mask>
                <g id="Clip-39"></g>
                <polygon id="Fill-38" fill="#FFFFFF" mask="url(#mask-24)" points="221.545227 114.837182 231.10952 114.837182 231.10952 105.272889 221.545227 105.272889"></polygon>
            </g>
        </g>
    </g>
</svg>